<?xml version="1.0" encoding="UTF-8"?>
<!DOCTYPE svg PUBLIC "-//W3C//DTD SVG 1.1//EN" "http://www.w3.org/Graphics/SVG/1.1/DTD/svg11.dtd">
<svg xmlns="http://www.w3.org/2000/svg" xmlns:xlink="http://www.w3.org/1999/xlink" version="1.1" width="111px" height="134px" viewBox="-0.5 -0.5 111 134"><defs/><g><path d="M 66 0 Q 79 0 79 22.5 Q 79 45 66 45 Q 72.5 22.5 66 0 Z" fill="#ffce9f" stroke="none" transform="translate(72.5,0)scale(-1,1)translate(-72.5,0)" pointer-events="all"/><path d="M 33 1 Q 46 1 46 23.5 Q 46 46 33 46 Q 39.5 23.5 33 1 Z" fill="#ffce9f" stroke="none" pointer-events="all"/><ellipse cx="18" cy="29" rx="15" ry="10" fill="#4a4a4a" stroke="none" transform="rotate(25,18,29)" pointer-events="all"/><ellipse cx="56" cy="65.5" rx="40" ry="49.5" fill="#f5f5f5" stroke="none" pointer-events="all"/><path d="M 28.5 42.5 C 18.5 42.5 16 60 24 63.5 C 16 71.2 25 88 31.5 81 C 36 95 51 95 56 81 C 66 81 66 67 59.75 60 C 66 46 56 32 47.25 39 C 41 28.5 31 28.5 28.5 42.5 Z" fill="#4a4a4a" stroke="none" pointer-events="all"/><ellipse cx="56" cy="96.5" rx="40" ry="21.5" fill="#ffcce6" stroke="none" pointer-events="all"/><ellipse cx="91" cy="28" rx="15" ry="10" fill="#f5f5f5" stroke="none" transform="rotate(325,91,28)" pointer-events="all"/><rect x="78.85" y="103.5" width="1" height="29" rx="0.5" ry="0.5" fill="#b09647" stroke="none" transform="rotate(132,79.35,118)" pointer-events="none"/><ellipse cx="80.85" cy="117" rx="3" ry="1.5" fill="#d6b656" stroke="#b09647" transform="rotate(182,80.85,117)" pointer-events="none"/><ellipse cx="82.85" cy="119" rx="3" ry="1.5" fill="#d6b656" stroke="#b09647" transform="rotate(182,82.85,119)" pointer-events="none"/><ellipse cx="77.85" cy="120" rx="3" ry="1.5" fill="#d6b656" stroke="#b09647" transform="translate(0,120)scale(1,-1)translate(0,-120)rotate(-442,77.85,120)" pointer-events="none"/><ellipse cx="79.85" cy="122" rx="3" ry="1.5" fill="#d6b656" stroke="#b09647" transform="translate(0,122)scale(1,-1)translate(0,-122)rotate(-442,79.85,122)" pointer-events="none"/><ellipse cx="81.85" cy="124" rx="3" ry="1.5" fill="#d6b656" stroke="#b09647" transform="translate(0,124)scale(1,-1)translate(0,-124)rotate(-442,81.85,124)" pointer-events="none"/><ellipse cx="83.85" cy="126" rx="3" ry="1.5" fill="#d6b656" stroke="#b09647" transform="translate(0,126)scale(1,-1)translate(0,-126)rotate(-442,83.85,126)" pointer-events="none"/><ellipse cx="86.85" cy="128" rx="3" ry="1.5" fill="#d6b656" stroke="#b09647" transform="translate(0,128)scale(1,-1)translate(0,-128)rotate(-435,86.85,128)" pointer-events="none"/><ellipse cx="85.85" cy="121" rx="3" ry="1.5" fill="#d6b656" stroke="#b09647" transform="rotate(182,85.85,121)" pointer-events="none"/><ellipse cx="87.85" cy="123" rx="3" ry="1.5" fill="#d6b656" stroke="#b09647" transform="rotate(182,87.85,123)" pointer-events="none"/><ellipse cx="89.85" cy="125" rx="3" ry="1.5" fill="#d6b656" stroke="#b09647" transform="rotate(189,89.85,125)" pointer-events="none"/><ellipse cx="90.35" cy="128.5" rx="3" ry="1.5" fill="#d6b656" stroke="#b09647" transform="translate(90.35,0)scale(-1,1)translate(-90.35,0)rotate(-222,90.35,128.5)" pointer-events="none"/><ellipse cx="39.5" cy="92.5" rx="6.5" ry="6.5" fill="#000000" stroke="none" pointer-events="none"/><ellipse cx="72.5" cy="92.5" rx="6.5" ry="6.5" fill="#000000" stroke="none" pointer-events="none"/><path d="M 29.5 50.25 Q 49.5 50.25 49.5 56 Q 49.5 61.75 29.5 61.75" fill="none" stroke="#000000" stroke-width="2" stroke-miterlimit="10" transform="rotate(270,39.5,56)" pointer-events="none"/><path d="M 62.5 49.25 Q 82.5 49.25 82.5 55 Q 82.5 60.75 62.5 60.75" fill="none" stroke="#000000" stroke-width="2" stroke-miterlimit="10" transform="rotate(270,72.5,55)" pointer-events="none"/><path d="M 54.26 89.17 Q 57.76 89.17 57.76 107.75 Q 57.76 126.32 54.26 126.32" fill="none" stroke="#000000" stroke-width="2" stroke-miterlimit="10" transform="rotate(90,56.01,107.75)" pointer-events="none"/></g></svg>