<?xml version="1.0" encoding="UTF-8"?>
<!DOCTYPE svg PUBLIC "-//W3C//DTD SVG 1.1//EN" "http://www.w3.org/Graphics/SVG/1.1/DTD/svg11.dtd">
<svg xmlns="http://www.w3.org/2000/svg" xmlns:xlink="http://www.w3.org/1999/xlink" version="1.1" width="111px" height="120px" viewBox="-0.5 -0.5 111 120"><defs/><g><path d="M 66 0 Q 79 0 79 22.5 Q 79 45 66 45 Q 72.5 22.5 66 0 Z" fill="#ffce9f" stroke="none" transform="translate(72.5,0)scale(-1,1)translate(-72.5,0)" pointer-events="all"/><path d="M 33 1 Q 46 1 46 23.5 Q 46 46 33 46 Q 39.5 23.5 33 1 Z" fill="#ffce9f" stroke="none" pointer-events="all"/><ellipse cx="18" cy="29" rx="15" ry="10" fill="#4a4a4a" stroke="none" transform="rotate(25,18,29)" pointer-events="all"/><ellipse cx="56" cy="65.5" rx="40" ry="49.5" fill="#f5f5f5" stroke="none" pointer-events="all"/><path d="M 28.5 42.5 C 18.5 42.5 16 60 24 63.5 C 16 71.2 25 88 31.5 81 C 36 95 51 95 56 81 C 66 81 66 67 59.75 60 C 66 46 56 32 47.25 39 C 41 28.5 31 28.5 28.5 42.5 Z" fill="#4a4a4a" stroke="none" pointer-events="all"/><ellipse cx="91" cy="28" rx="15" ry="10" fill="#f5f5f5" stroke="none" transform="rotate(325,91,28)" pointer-events="all"/><rect x="34.5" y="63.5" width="10" height="21.5" fill="#d4e1f5" stroke="none" pointer-events="all"/><rect x="67.5" y="63.5" width="10" height="20.5" fill="#d4e1f5" stroke="none" pointer-events="all"/><ellipse cx="56" cy="96.5" rx="40" ry="21.5" fill="#ffcce6" stroke="none" pointer-events="all"/><ellipse cx="39.5" cy="92.5" rx="6.5" ry="6.5" fill="#000000" stroke="none" pointer-events="all"/><ellipse cx="72.5" cy="92.5" rx="6.5" ry="6.5" fill="#000000" stroke="none" pointer-events="all"/><path d="M 54.25 88.17 Q 57.75 88.17 57.75 106.75 Q 57.75 125.32 54.25 125.32" fill="none" stroke="#000000" stroke-width="2" stroke-miterlimit="10" transform="rotate(270,56,106.75)" pointer-events="all"/><path d="M 31 49.75 Q 48 49.75 48 55.5 Q 48 61.25 31 61.25" fill="none" stroke="#000000" stroke-width="2" stroke-miterlimit="10" transform="rotate(90,39.5,55.5)" pointer-events="all"/><path d="M 63.5 49.25 Q 81.5 49.25 81.5 55 Q 81.5 60.75 63.5 60.75" fill="none" stroke="#000000" stroke-width="2" stroke-miterlimit="10" transform="rotate(90,72.5,55)" pointer-events="all"/></g></svg>