<?xml version="1.0" encoding="UTF-8"?>
<!DOCTYPE svg PUBLIC "-//W3C//DTD SVG 1.1//EN" "http://www.w3.org/Graphics/SVG/1.1/DTD/svg11.dtd">
<svg xmlns="http://www.w3.org/2000/svg" xmlns:xlink="http://www.w3.org/1999/xlink" version="1.1" width="157px" height="111px" viewBox="-0.5 -0.5 157 111"><defs/><g><path d="M 102.04 -11.27 L 129.94 13.85 L 102.04 38.97 Z" fill="#3d2a26" stroke="none" transform="rotate(-90,115.99,13.85)" pointer-events="all"/><rect x="84" y="41.6" width="64" height="68" fill="#d9c4a0" stroke="none" pointer-events="all"/><rect x="4" y="73.6" width="80.4" height="36" fill="#d9c4a0" stroke="none" pointer-events="all"/><path d="M 76 45.6 L 84 25.6 L 148 25.6 L 156 45.6 Z" fill="#3d2a26" stroke="none" pointer-events="all"/><ellipse cx="116" cy="28.2" rx="13.200000000000001" ry="13.200000000000001" fill="#ffffff" stroke="#000000" stroke-width="2" pointer-events="all"/><path d="M 0 81.6 L 8 61.6 L 84.4 61.6 L 92.4 81.6 Z" fill="#3d2a26" stroke="none" pointer-events="all"/><rect x="112" y="53.6" width="8" height="12" rx="1.2" ry="1.2" fill="#dae8fc" stroke="none" pointer-events="all"/><rect x="96" y="53.6" width="8" height="12" rx="1.2" ry="1.2" fill="#dae8fc" stroke="none" pointer-events="all"/><rect x="128" y="53.6" width="8" height="12" rx="1.2" ry="1.2" fill="#dae8fc" stroke="none" pointer-events="all"/><rect x="91.6" y="84.8" width="8" height="12" rx="1.2" ry="1.2" fill="#dae8fc" stroke="none" pointer-events="all"/><rect x="132" y="85.6" width="8" height="12" rx="1.2" ry="1.2" fill="#dae8fc" stroke="none" pointer-events="all"/><rect x="112" y="85.2" width="8" height="12" rx="1.2" ry="1.2" fill="#dae8fc" stroke="none" pointer-events="all"/><rect x="27.2" y="84.8" width="8" height="12" rx="1.2" ry="1.2" fill="#dae8fc" stroke="none" pointer-events="all"/><rect x="75.2" y="84.8" width="8" height="12" rx="1.2" ry="1.2" fill="#dae8fc" stroke="none" pointer-events="all"/><rect x="43.2" y="84.8" width="8" height="12" rx="1.2" ry="1.2" fill="#dae8fc" stroke="none" pointer-events="all"/><rect x="59.2" y="84.8" width="8" height="12" rx="1.2" ry="1.2" fill="#dae8fc" stroke="none" pointer-events="all"/><path d="M 102 85.6 Q 130 85.6 130 95.6 Q 130 105.6 102 105.6 Z" fill="#3d2a26" stroke="none" transform="rotate(-90,116,95.6)" pointer-events="all"/><rect x="12" y="84.8" width="8" height="12" rx="1.2" ry="1.2" fill="#dae8fc" stroke="none" pointer-events="all"/></g></svg>