<svg xmlns="http://www.w3.org/2000/svg" xmlns:xlink="http://www.w3.org/1999/xlink" viewBox="0 0 782.8 317.6"><defs><style>.cls-1{fill:#662d02;}.cls-1,.cls-2,.cls-3,.cls-4{stroke:#000;stroke-miterlimit:10;}.cls-2{fill:#8e4000;}.cls-3{fill:none;}.cls-5{fill:#ffc01d;}.cls-6{fill:url(#radial-gradient);}.cls-7{fill:#936500;}.cls-8{fill:url(#radial-gradient-2);}.cls-9{fill:url(#radial-gradient-3);}.cls-10{fill:url(#radial-gradient-4);}.cls-11{fill:url(#radial-gradient-5);}.cls-12{fill:url(#radial-gradient-6);}.cls-13{fill:url(#radial-gradient-7);}.cls-14{fill:url(#radial-gradient-8);}.cls-15{fill:url(#radial-gradient-9);}.cls-16{fill:url(#radial-gradient-10);}.cls-17{fill:url(#radial-gradient-11);}.cls-18{fill:url(#radial-gradient-12);}.cls-19{fill:url(#radial-gradient-13);}.cls-20{fill:url(#radial-gradient-14);}.cls-21{fill:url(#radial-gradient-15);}.cls-22{fill:url(#radial-gradient-16);}.cls-23{fill:url(#radial-gradient-17);}.cls-24{fill:url(#radial-gradient-18);}.cls-25{fill:url(#radial-gradient-19);}.cls-26{fill:url(#radial-gradient-20);}.cls-27{fill:url(#radial-gradient-21);}.cls-28{fill:url(#radial-gradient-22);}.cls-29{fill:url(#radial-gradient-23);}.cls-30{fill:url(#radial-gradient-24);}.cls-31{fill:url(#radial-gradient-25);}</style><radialGradient id="radial-gradient" cx="186.53" cy="234.64" r="47.79" gradientUnits="userSpaceOnUse"><stop offset="0" stop-color="#ffcd4a"/><stop offset="0.85" stop-color="#bf9016" stop-opacity="0.4"/><stop offset="1" stop-color="#ffc01d"/></radialGradient><radialGradient id="radial-gradient-2" cx="321.62" cy="246.78" r="47.79" gradientTransform="translate(-13.23 448.11) rotate(-70.06)" xlink:href="#radial-gradient"/><radialGradient id="radial-gradient-3" cx="334.7" cy="373.59" r="47.79" gradientTransform="translate(351.18 721.67) rotate(-125.23)" xlink:href="#radial-gradient"/><radialGradient id="radial-gradient-4" cx="329.3" cy="466" r="47.79" gradientTransform="translate(103.28 -46.18) rotate(-25.37)" xlink:href="#radial-gradient"/><radialGradient id="radial-gradient-5" cx="410.67" cy="442.26" r="47.79" gradientTransform="translate(1065.78 -282.77) rotate(75.08)" xlink:href="#radial-gradient"/><radialGradient id="radial-gradient-6" cx="393.18" cy="1014.69" r="47.79" gradientTransform="translate(1065.78 -282.77) rotate(75.08)" xlink:href="#radial-gradient"/><radialGradient id="radial-gradient-7" cx="306.82" cy="197.88" r="47.79" gradientTransform="translate(351.18 721.67) rotate(-125.23)" xlink:href="#radial-gradient"/><radialGradient id="radial-gradient-8" cx="466.82" cy="363.43" r="47.79" xlink:href="#radial-gradient"/><radialGradient id="radial-gradient-9" cx="498.93" cy="615.15" r="47.79" gradientTransform="translate(1065.78 -282.77) rotate(75.08)" xlink:href="#radial-gradient"/><radialGradient id="radial-gradient-10" cx="344.94" cy="687.03" r="47.79" gradientTransform="translate(-13.23 448.11) rotate(-70.06)" xlink:href="#radial-gradient"/><radialGradient id="radial-gradient-11" cx="253.15" cy="237.34" r="47.79" xlink:href="#radial-gradient"/><radialGradient id="radial-gradient-12" cx="341.79" cy="310.32" r="47.79" gradientTransform="translate(-13.23 448.11) rotate(-70.06)" xlink:href="#radial-gradient"/><radialGradient id="radial-gradient-13" cx="294.06" cy="426.45" r="47.79" gradientTransform="translate(351.18 721.67) rotate(-125.23)" xlink:href="#radial-gradient"/><radialGradient id="radial-gradient-14" cx="388.34" cy="496.98" r="47.79" gradientTransform="translate(103.28 -46.18) rotate(-25.37)" xlink:href="#radial-gradient"/><radialGradient id="radial-gradient-15" cx="412.93" cy="951.02" r="47.79" gradientTransform="translate(1065.78 -282.77) rotate(75.08)" xlink:href="#radial-gradient"/><radialGradient id="radial-gradient-16" cx="266.19" cy="250.73" r="47.79" gradientTransform="translate(351.18 721.67) rotate(-125.23)" xlink:href="#radial-gradient"/><radialGradient id="radial-gradient-17" cx="533.43" cy="366.13" r="47.79" xlink:href="#radial-gradient"/><radialGradient id="radial-gradient-18" cx="518.69" cy="551.48" r="47.79" gradientTransform="translate(1065.78 -282.77) rotate(75.08)" xlink:href="#radial-gradient"/><radialGradient id="radial-gradient-19" cx="382.06" cy="865.65" r="47.79" gradientTransform="translate(1065.78 -282.77) rotate(75.08)" xlink:href="#radial-gradient"/><radialGradient id="radial-gradient-20" cx="340.36" cy="523.81" r="47.79" gradientTransform="translate(-13.23 448.11) rotate(-70.06)" xlink:href="#radial-gradient"/><radialGradient id="radial-gradient-21" cx="189.73" cy="307.57" r="47.79" xlink:href="#radial-gradient"/><radialGradient id="radial-gradient-22" cx="270.75" cy="333.32" r="47.79" gradientTransform="translate(351.18 721.67) rotate(-125.23)" xlink:href="#radial-gradient"/><radialGradient id="radial-gradient-23" cx="376.16" cy="576.44" r="47.79" gradientTransform="translate(103.28 -46.18) rotate(-25.37)" xlink:href="#radial-gradient"/><radialGradient id="radial-gradient-24" cx="472.64" cy="442.71" r="47.79" gradientTransform="translate(1065.78 -282.77) rotate(75.08)" xlink:href="#radial-gradient"/><radialGradient id="radial-gradient-25" cx="232.8" cy="222.89" r="47.79" gradientTransform="translate(-13.23 448.11) rotate(-70.06)" xlink:href="#radial-gradient"/></defs><g id="Layer_1" data-name="Layer 1"><rect class="cls-1" x="26.4" y="12.3" width="730" height="293"/><rect class="cls-1" x="46.4" y="31.3" width="690" height="255"/><rect class="cls-2" x="22.6" y="9.15" width="27.6" height="26.3"/><rect class="cls-2" x="22.6" y="281.98" width="27.6" height="26.3"/><rect class="cls-2" x="732.1" y="8.65" width="27.6" height="26.3"/><rect class="cls-2" x="731.8" y="281.8" width="27.6" height="26.3"/><path class="cls-2" d="M107.8,295.5l-5.25-123.35H122V418.67H102.47L107.8,295.5" transform="translate(-75.6 -136.7)"/><polyline class="cls-2" points="391.4 17.7 50.2 12.79 50.2 31.3 732.1 31.3 732.1 13.05 391.4 17.7"/><line class="cls-3" x1="755.91" y1="34.95" x2="750.6" y2="158.63"/><line class="cls-3" x1="755.86" y1="281.8" x2="750.6" y2="158.63"/><line class="cls-3" x1="50.2" y1="304.8" x2="391.65" y2="299.9"/><line class="cls-3" x1="731.8" y1="304.8" x2="391.65" y2="299.9"/><polyline class="cls-2" points="391.65 299.3 50.45 304.21 50.45 285.69 732.35 285.69 732.35 303.94 391.65 299.3"/><path class="cls-2" d="M825.64,295.59l5.25-123.35H811.44V418.76H831l-5.32-123.17" transform="translate(-75.6 -136.7)"/><path class="cls-4" d="M313,137.3a347,347,0,0,1-63.45,5.85,347.45,347.45,0,0,1-63.45-5.85V149H313Z" transform="translate(-75.6 -136.7)"/><path class="cls-4" d="M764.22,137.3a347,347,0,0,1-63.45,5.85,347.35,347.35,0,0,1-63.44-5.85V149H764.22Z" transform="translate(-75.6 -136.7)"/><path class="cls-4" d="M312.84,453.7a347,347,0,0,0-126.9,0V442h126.9Z" transform="translate(-75.6 -136.7)"/><path class="cls-4" d="M764.06,453.7a347,347,0,0,0-126.9,0V442h126.9Z" transform="translate(-75.6 -136.7)"/><rect x="756.4" y="145.68" width="24.6" height="25.4"/><ellipse cx="781" cy="158.38" rx="1.8" ry="20.38"/><rect x="77.4" y="282.8" width="24.6" height="25.4" transform="translate(103.8 454.3) rotate(-180)"/><ellipse cx="1.8" cy="158.8" rx="1.8" ry="20.38"/><rect class="cls-2" x="377.35" y="8.65" width="27.6" height="26.3"/><rect class="cls-2" x="377.35" y="281.8" width="27.6" height="26.3"/></g><g id="_0-10" data-name="0-10"><g id="_1" data-name="1"><path class="cls-5" d="M251,248.45s-.36-10.56-4.12-15.29a56.84,56.84,0,0,1-46.55,53.08,71.5,71.5,0,0,1-27.86,11s12.39-7,14.3-10.23a56.54,56.54,0,0,1-33.26-13.29h0c-.28-.05-5.87-1-26.25-10.46,0,0,13.6,5,17.32,5.23,0,0-8.1-7.48-17.32-8.38l9.22.9s-13.72-6.52-15.52-10.12c0,0,7.81,3.1,16.28,7.4,0,0-9.52-12.79-12.22-28,.25.52,4.32,8.92,6.29,10.88l-.9-26.75s.26,5.38,3.39,8.53a55.86,55.86,0,0,1,1.77-8.53s2.93-20.85,14.58-35.7c-.34.6-2.15,4.28-1.85,13.11a56.29,56.29,0,0,1,6.33-5.92,0,0,0,0,1,0,0c.34-.7,5.92-11.92,13.45-16.28,0,0-10.56,11.85-9,13a56.71,56.71,0,0,1,10.49-5.38s.29-2.47,9.33-7c-.34.32-6.1,5.57-5.61,5.66h0a56.18,56.18,0,0,1,9.11-2,34.2,34.2,0,0,1,11.19-3.66s-3.3,1.57-4.3,3.15h.81a56.64,56.64,0,0,1,12.65,1.42h0c.42-.14,6.63-1.83,26.94,5.08-1.25-.26-14.41-3-15.89-1.32A56.9,56.9,0,0,1,245,215.81S251.4,219.88,251,248.45Z" transform="translate(-75.6 -136.7)"/><path class="cls-6" d="M206.92,187.58s-7.78-1-11.69,1.24a42.17,42.17,0,0,1,33.47,40.31,53,53,0,0,1,4.84,21.71s-3.65-9.89-5.83-11.68A41.93,41.93,0,0,1,214.09,262h0c-.07.2-1.45,4.18-10.73,18,0,0,5.25-9.39,5.86-12.09,0,0-6.43,5.07-8.17,11.72l1.74-6.65s-6.38,9.29-9.23,10.19c0,0,3.18-5.36,7.32-11.07,0,0-10.48,5.49-21.92,5.69.41-.12,7-2.12,8.71-3.34L168,272s4,.44,6.65-1.49a41,41,0,0,1-6.05-2.29s-14.93-4.58-24.46-14.85c.4.32,2.89,2.07,9.39,2.88a42.18,42.18,0,0,1-3.6-5.33h0c-.48-.33-8-5.73-10.36-11.75,0,0,7.45,9.12,8.5,8.09a42.32,42.32,0,0,1-2.72-8.31s-1.78-.51-4-7.66c.19.29,3.37,5.13,3.49,4.78h0a42.83,42.83,0,0,1-.41-6.91,25.52,25.52,0,0,1-1.37-8.63s.76,2.6,1.8,3.52l.09-.6a42,42,0,0,1,2.52-9.1v0c0-.32-.57-5.07,6.87-19.15-.34.89-3.91,10.21-2.83,11.49a42.26,42.26,0,0,1,30.85-18.54S186,183.92,206.92,187.58Z" transform="translate(-75.6 -136.7)"/><path class="cls-7" d="M218.76,211.15s.49-7.74-11.25-12.66c0,0,3.48-2.32,8.08,3.26,0,0,1.92-5.57-13.84-7.07,0,0,5.26-5.88,11.66.42,0,0-.13-3.51-5.16-4.93C208.25,190.17,218.89,188.25,218.76,211.15Z" transform="translate(-75.6 -136.7)"/><path class="cls-7" d="M168,258.33s2.28,7.4,15,7.87c0,0-2.44,3.39-8.71-.2,0,0,.17,5.88,15.44,1.72,0,0-2.85,7.36-11.06,3.72,0,0,1.36,3.25,6.58,2.8C185.28,274.24,176,279.79,168,258.33Z" transform="translate(-75.6 -136.7)"/><path class="cls-7" d="M152.27,228.24s-.82,5.55,7.35,9.82c0,0-2.65,1.46-5.63-2.84,0,0-1.73,3.9,9.56,5.94,0,0-4.16,3.92-8.39-1,0,0-.12,2.54,3.43,3.88C158.59,244,150.79,244.76,152.27,228.24Z" transform="translate(-75.6 -136.7)"/><path class="cls-7" d="M176.46,199.67s-5.3-3.18-13.09,3.32c0,0-.36-3.3,5.27-4.52,0,0-3.23-3.4-10.07,7.21,0,0-2.23-5.88,4.57-8.1,0,0-2.53-1.2-5.38,1.84C157.76,199.42,160.3,191.19,176.46,199.67Z" transform="translate(-75.6 -136.7)"/><path class="cls-7" d="M213.17,254.73s3.08-1.32,2.69-6.82c0,0,1.57.89.32,3.76,0,0,2.52-.35,0-6.72,0,0,3.3.88,2.12,4.58,0,0,1.33-.74.89-3C219.21,246.57,222,250.3,213.17,254.73Z" transform="translate(-75.6 -136.7)"/></g><g id="_2" data-name="2"><path class="cls-5" d="M363.38,174.07s-10.05-3.26-15.78-1.34a56.84,56.84,0,0,1,34,61.86,71.54,71.54,0,0,1,.88,30s-2.32-14-4.74-16.94a56.59,56.59,0,0,1-23.84,26.74h0c-.15.24-3,5.16-18.79,21.11,0,0,9.33-11.09,10.83-14.5,0,0-9.8,5.06-13.79,13.42l4-8.36s-10.81,10.68-14.8,11.14c0,0,5.57-6.28,12.5-12.78,0,0-15.27,4.59-30.45,1.95.58,0,9.86-1,12.38-2.2l-25.46-8.27s5.15,1.59,9.18-.28A55.74,55.74,0,0,1,292.1,271s-18.6-9.86-28.59-25.87c.45.52,3.29,3.48,11.7,6.2a55.42,55.42,0,0,1-3.41-8v0c-.54-.56-9.18-9.63-10.71-18.19,0,0,7.53,14,9.19,12.87a56.34,56.34,0,0,1-1.48-11.69s-2.23-1.12-3.37-11.15c.19.43,3.16,7.64,3.41,7.21h0a55.16,55.16,0,0,1,1.21-9.25,34.16,34.16,0,0,1,.38-11.77s.35,3.64,1.49,5.12l.27-.77a56.41,56.41,0,0,1,5.65-11.41h0c0-.45.55-6.86,14-23.6-.67,1.09-7.77,12.51-6.66,14.49a56.86,56.86,0,0,1,45.53-16.68S336.68,163.91,363.38,174.07Z" transform="translate(-75.6 -136.7)"/><path class="cls-8" d="M291.15,194.71s-3.56,7-2.82,11.41a42.18,42.18,0,0,1,49.31-17.72,53,53,0,0,1,22.05,2.85s-10.54.06-13,1.5a42,42,0,0,1,16.81,20.59h0c.16.14,3.44,2.79,13.28,16.23,0,0-7-8.13-9.36-9.62,0,0,2.56,7.77,8.23,11.67l-5.67-3.9s6.57,9.17,6.44,12.15c0,0-4-4.82-7.91-10.66,0,0,1.58,11.73-2.12,22.55,0-.43.4-7.35-.17-9.33l-9,17.69s1.77-3.58.87-6.76a40.69,40.69,0,0,1-4.22,4.91s-9.4,12.48-22.3,17.93c.44-.27,2.93-2,5.92-7.85a41.9,41.9,0,0,1-6.24,1.57h0c-.48.33-8.13,5.61-14.59,5.73,0,0,11.12-3.89,10.51-5.23a42.08,42.08,0,0,1-8.75-.28s-1.07,1.5-8.56,1.16c.34-.08,6-1.42,5.68-1.65h0a41,41,0,0,1-6.64-2,25.17,25.17,0,0,1-8.58-1.65s2.71.17,3.92-.5l-.53-.28a42.08,42.08,0,0,1-7.7-5.47h0c-.32-.06-5-1.19-15.66-13,.71.61,8.26,7.15,9.84,6.57A42.26,42.26,0,0,1,283.26,218S280.58,213.09,291.15,194.71Z" transform="translate(-75.6 -136.7)"/><path class="cls-7" d="M317.34,191.61s-7.1-3.09-15.74,6.26c0,0-1-4.05,5.82-6.48,0,0-4.57-3.7-11.36,10.6,0,0-3.73-7,4.37-10.82,0,0-3.34-1.08-6.4,3.17C294,194.34,295.86,183.69,317.34,191.61Z" transform="translate(-75.6 -136.7)"/><path class="cls-7" d="M344.39,255.39s7.74.39,12.52-11.41c0,0,2.35,3.44-3.16,8.12,0,0,5.59,1.84,6.88-13.94,0,0,5.95,5.19-.27,11.67,0,0,3.51-.17,4.87-5.23C365.23,244.6,367.29,255.22,344.39,255.39Z" transform="translate(-75.6 -136.7)"/><path class="cls-7" d="M310.74,260s4.94,2.66,11.74-3.56c0,0,.46,3-4.6,4.32,0,0,3.08,3,8.85-7,0,0,2.27,5.24-3.82,7.54,0,0,2.35,1,4.82-1.9C327.73,259.39,325.76,267,310.74,260Z" transform="translate(-75.6 -136.7)"/><path class="cls-7" d="M292.13,227.47s-4.8,3.89-1.34,13.43c0,0-3.23-.79-2.46-6.5,0,0-4.29,1.89,3.34,11.93,0,0-6.28.09-6.05-7.06,0,0-2,2-.1,5.69C285.52,245,278.65,239.77,292.13,227.47Z" transform="translate(-75.6 -136.7)"/><path class="cls-7" d="M356.41,211.73s-.2-3.35-5.5-4.85c0,0,1.38-1.18,3.64,1,0,0,.54-2.49-6.31-2.31,0,0,2-2.8,5-.43,0,0-.24-1.5-2.47-1.85C350.8,203.27,355.27,201.89,356.41,211.73Z" transform="translate(-75.6 -136.7)"/></g><g id="_3" data-name="3"><path class="cls-5" d="M437.38,172.17s-8.41,6.39-10.11,12.19a56.84,56.84,0,0,1,70.21,7.4,71.48,71.48,0,0,1,25.09,16.39S509.74,202,506,202.37a56.57,56.57,0,0,1,8.33,34.83h0c.12.26,2.54,5.4,6.6,27.48,0,0-3.77-14-5.72-17.17,0,0-1.43,10.93,3.15,19l-4.58-8.06s2.59,15,.68,18.52c0,0-2-8.17-3.34-17.57,0,0-5,15.16-15.79,26.11.28-.5,4.79-8.67,5.26-11.41l-21.34,16.17s4.25-3.32,5-7.69a56.62,56.62,0,0,1-8,3.47s-18.72,9.64-37.57,8.69c.68-.07,4.73-.72,11.77-6.05a57.65,57.65,0,0,1-8.49-1.76h0c-.77.12-13.15,2-21.06-1.6,0,0,15.78,1.79,15.82-.19a56.46,56.46,0,0,1-10.44-5.46s-2.19,1.19-11.07-3.61c.46.1,8.07,1.77,7.86,1.32h0a56.63,56.63,0,0,1-6.9-6.28,34.29,34.29,0,0,1-9.44-7s3.19,1.79,5.05,1.7l-.47-.66A56.47,56.47,0,0,1,405.15,254v0c-.36-.26-5.32-4.36-11.39-24.93.51,1.17,5.83,13.52,8.09,13.74a56.88,56.88,0,0,1,12.3-46.9S413.79,188.29,437.38,172.17Z" transform="translate(-75.6 -136.7)"/><path class="cls-9" d="M413.07,243.25s3.7,6.91,7.75,8.83a42.18,42.18,0,0,1,13.62-50.59A53.11,53.11,0,0,1,449.38,185s-6,8.7-6.17,11.5a41.91,41.91,0,0,1,26.5-2h0c.2-.05,4.25-1.23,20.9-1.63,0,0-10.69,1.13-13.24,2.19,0,0,7.84,2.33,14.27-.09l-6.43,2.42s11.27-.15,13.65,1.66c0,0-6.22.49-13.27.4,0,0,10.53,5.4,17.3,14.62-.34-.26-5.8-4.52-7.75-5.18l9.36,17.52s-1.94-3.5-5.05-4.57a42.32,42.32,0,0,1,1.61,6.26s4.88,14.84,2,28.55c0-.51,0-3.56-3.06-9.34a42.06,42.06,0,0,1-2.28,6s0,0,0,0c0,.57,0,9.87-3.63,15.24,0,0,3.15-11.35,1.71-11.61a41.63,41.63,0,0,1-5.23,7s.62,1.74-3.93,7.7c.12-.33,2.24-5.71,1.88-5.61h0a41.49,41.49,0,0,1-5.41,4.32,25.48,25.48,0,0,1-6.26,6.11s1.69-2.13,1.84-3.51l-.54.27a41.76,41.76,0,0,1-8.89,3.2h0c-.24.23-3.82,3.39-19.61,5.43.92-.23,10.59-2.69,11-4.32a42.25,42.25,0,0,1-32.94-14.49S422.13,262.42,413.07,243.25Z" transform="translate(-75.6 -136.7)"/><path class="cls-7" d="M425.49,220s-6.6,4.07-3.86,16.5c0,0-3.89-1.51-2-8.48,0,0-5.65,1.64,2.21,15.38,0,0-7.84-.91-6.38-9.77,0,0-2.8,2.13-1.06,7.07C414.41,240.68,406.71,233.09,425.49,220Z" transform="translate(-75.6 -136.7)"/><path class="cls-7" d="M493.29,234.2s4.73-6.13-2.22-16.79c0,0,4.17,0,4.86,7.23,0,0,4.71-3.53-7.51-13.61,0,0,7.66-1.91,9.43,6.89,0,0,1.86-3-1.51-7C496.34,210.93,506.22,215.31,493.29,234.2Z" transform="translate(-75.6 -136.7)"/><path class="cls-7" d="M477.81,264.44s5-2.54,3.78-11.68c0,0,2.72,1.33.93,6.25,0,0,4.17-.85-.67-11.24,0,0,5.6,1.13,4,7.44,0,0,2.15-1.37,1.2-5C487.06,250.17,492.16,256.11,477.81,264.44Z" transform="translate(-75.6 -136.7)"/><path class="cls-7" d="M440.52,261.16s.46,6.16,10.26,8.77c0,0-2.5,2.2-6.74-1.7,0,0-.91,4.61,11.7,4.07,0,0-3.52,5.22-9.25.94,0,0,.48,2.76,4.61,3.34C451.1,276.58,442.91,279.25,440.52,261.16Z" transform="translate(-75.6 -136.7)"/><path class="cls-7" d="M464.31,199.41s-2.86-1.76-7.12,1.73c0,0-.18-1.79,2.89-2.42,0,0-1.74-1.87-5.51,3.86,0,0-1.18-3.21,2.52-4.38,0,0-1.36-.66-2.93,1C454.16,199.18,455.58,194.72,464.31,199.41Z" transform="translate(-75.6 -136.7)"/></g><g id="_4" data-name="4"><path class="cls-5" d="M664.59,218.71s-4.85-9.39-10.27-12.05A56.83,56.83,0,0,1,635,274.56a71.42,71.42,0,0,1-20.44,21.91s8.21-11.59,8.54-15.37a56.49,56.49,0,0,1-35.75,2.24h0c-.27.07-5.75,1.57-28.2,1.79,0,0,14.43-1.32,17.89-2.69,0,0-10.52-3.29-19.24-.16l8.72-3.13s-15.19,0-18.36-2.5c0,0,8.39-.54,17.88-.29,0,0-14.08-7.47-23-20,.45.37,7.73,6.21,10.35,7.14L541.07,239.7s2.54,4.75,6.72,6.25a55.7,55.7,0,0,1-2-8.46s-6.29-20.1-2.12-38.51c0,.69-.11,4.79,3.94,12.64a56.94,56.94,0,0,1,3.18-8.06h0c0-.78.24-13.31,5.18-20.48,0,0-4.47,15.23-2.52,15.62a56.57,56.57,0,0,1,7.17-9.36s-.8-2.35,5.45-10.28c-.17.43-3.13,7.64-2.65,7.52h0a56.84,56.84,0,0,1,7.37-5.72,34.37,34.37,0,0,1,8.55-8.1s-2.31,2.83-2.54,4.69l.73-.36a56.81,56.81,0,0,1,12-4.13h0c.31-.31,5.2-4.49,26.51-7-1.24.3-14.32,3.43-14.92,5.61a56.93,56.93,0,0,1,44.1,20.17S652.76,192.7,664.59,218.71Z" transform="translate(-75.6 -136.7)"/><path class="cls-10" d="M598.73,182.58s-7.45,2.45-10,6.12a42.16,42.16,0,0,1,47.51,22.09,53,53,0,0,1,13.67,17.54s-7.54-7.38-10.26-8.05a42.06,42.06,0,0,1-2.53,26.46h0c0,.21.48,4.4-2,20.88,0,0,.72-10.73.11-13.43,0,0-3.63,7.33-2.35,14.09l-1.28-6.76s-1.79,11.13-4,13.17c0,0,.58-6.21,1.88-13.14,0,0-7.12,9.45-17.37,14.53.32-.28,5.46-4.93,6.44-6.75l-18.86,6.22s3.77-1.3,5.36-4.19a42.57,42.57,0,0,1-6.44.52s-15.46,2.26-28.47-2.94c.5.11,3.5.64,9.73-1.42a41.1,41.1,0,0,1-5.54-3.27h0c-.57-.09-9.72-1.73-14.4-6.18,0,0,10.64,5.05,11.15,3.67a42.15,42.15,0,0,1-6-6.35s-1.82.31-6.9-5.2c.3.18,5.24,3.19,5.2,2.82h0a41.33,41.33,0,0,1-3.33-6.07,25.33,25.33,0,0,1-4.94-7.2s1.8,2,3.14,2.4c-.07-.19-.12-.38-.18-.57a41.62,41.62,0,0,1-1.62-9.31h0c-.19-.27-2.68-4.34-2-20.25.08.94.84,10.9,2.38,11.59a42.2,42.2,0,0,1,19.92-30S578.29,188.21,598.73,182.58Z" transform="translate(-75.6 -136.7)"/><path class="cls-7" d="M619.52,198.79s-2.87-7.19-15.58-6.62c0,0,2.15-3.57,8.69-.51,0,0-.65-5.85-15.53-.45,0,0,2.24-7.57,10.72-4.62,0,0-1.62-3.12-6.79-2.25C601,184.34,609.83,178.05,619.52,198.79Z" transform="translate(-75.6 -136.7)"/><path class="cls-7" d="M593.9,263.16s5.23,5.71,16.92.69c0,0-.75,4.1-8,3.55,0,0,2.68,5.24,14.7-5.07,0,0,.57,7.88-8.4,8.11,0,0,2.62,2.35,7.14-.29C616.3,270.15,610.29,279.14,593.9,263.16Z" transform="translate(-75.6 -136.7)"/><path class="cls-7" d="M566.77,242.73s1.63,5.36,10.85,5.72c0,0-1.77,2.45-6.31-.16,0,0,.11,4.27,11.18,1.27,0,0-2.07,5.33-8,2.68,0,0,1,2.36,4.76,2C579.24,254.28,572.51,258.29,566.77,242.73Z" transform="translate(-75.6 -136.7)"/><path class="cls-7" d="M576.38,206.55s-6.14-.61-10.4,8.6c0,0-1.74-2.83,2.83-6.34,0,0-4.38-1.68-6,10.83,0,0-4.54-4.36.66-9.28,0,0-2.81,0-4.08,4C559.38,214.34,558.15,205.81,576.38,206.55Z" transform="translate(-75.6 -136.7)"/><path class="cls-7" d="M633.14,240.57s2.22-2.51-.49-7.31c0,0,1.8.13,1.9,3.26,0,0,2.13-1.4-2.86-6.09,0,0,3.36-.61,3.88,3.24,0,0,.88-1.24-.46-3.06C635.11,230.61,639.26,232.77,633.14,240.57Z" transform="translate(-75.6 -136.7)"/></g><g id="_5" data-name="5"><path class="cls-5" d="M747.37,293.71s10.11-3.07,13.71-7.92a56.82,56.82,0,0,1-63.27-31.32A71.37,71.37,0,0,1,680,230.39s9.91,10.18,13.56,11.19A56.53,56.53,0,0,1,697.82,206h0c0-.29-.5-5.94,3.35-28.06,0,0-1.32,14.43-.59,18.08,0,0,5.14-9.75,3.64-18.89l1.5,9.14s2.77-14.94,5.79-17.6c0,0-1,8.34-3,17.63,0,0,9.91-12.49,23.88-19-.44.38-7.51,6.47-8.9,8.88l25.62-7.76s-5.13,1.64-7.37,5.47a56.75,56.75,0,0,1,8.7-.48s20.9-2.54,38.25,4.9c-.67-.18-4.69-1-13.15,1.59a55.39,55.39,0,0,1,7.35,4.59h0c.76.14,13,2.65,19.19,8.8,0,0-14.17-7.15-14.9-5.31a56.8,56.8,0,0,1,7.9,8.75s2.46-.36,9.13,7.22c-.4-.24-7-4.46-6.92-4h0a56.36,56.36,0,0,1,4.29,8.28,34.17,34.17,0,0,1,6.42,9.88s-2.37-2.79-4.15-3.35c.08.26.15.52.22.78A56.91,56.91,0,0,1,806,228.2v0c.24.37,3.47,5.94,2,27.34-.07-1.27-.77-14.71-2.81-15.69a56.93,56.93,0,0,1-27.83,39.71S775.09,286.79,747.37,293.71Z" transform="translate(-75.6 -136.7)"/><path class="cls-11" d="M794.85,235.49s-1.07-7.76-4.21-11a42.18,42.18,0,0,1-30.33,42.72,53.13,53.13,0,0,1-19.73,10.26s8.61-6.08,9.78-8.64a41.93,41.93,0,0,1-25.57-7.28h0c-.21,0-4.42-.33-20.18-5.73,0,0,10.42,2.65,13.19,2.54,0,0-6.55-4.9-13.43-4.87l6.88,0s-10.62-3.78-12.23-6.3c0,0,6,1.7,12.58,4.23,0,0-8-8.72-11.14-19.71.22.36,3.87,6.25,5.47,7.55l-2.69-19.68s.6,3.95,3.15,6a40.27,40.27,0,0,1,.66-6.43s.58-15.62,8.05-27.46c-.21.47-1.26,3.32-.37,9.82A41.43,41.43,0,0,1,719,196.7h0c.2-.55,3.47-9.25,8.69-13,0,0-6.89,9.55-5.63,10.3a42,42,0,0,1,7.34-4.77s0-1.85,6.36-5.85c-.23.27-4.08,4.58-3.72,4.61h0a41.48,41.48,0,0,1,6.57-2.18,25.57,25.57,0,0,1,8-3.55s-2.32,1.41-2.94,2.65l.6-.07a42,42,0,0,1,9.45.09h0c.3-.13,4.76-1.85,20.28,1.71-1-.1-10.87-1.15-11.84.23a42.22,42.22,0,0,1,25.86,25S793,214.37,794.85,235.49Z" transform="translate(-75.6 -136.7)"/><path class="cls-7" d="M775.12,253s7.6-1.52,9.34-14.13c0,0,3.13,2.76-1.07,8.65,0,0,5.87.42,3.26-15.2,0,0,7,3.58,2.6,11.38,0,0,3.36-1,3.44-6.26C792.69,237.44,797.28,247.23,775.12,253Z" transform="translate(-75.6 -136.7)"/><path class="cls-7" d="M716.48,216.13s-6.57,4.1-3.75,16.51c0,0-3.9-1.48-2.05-8.47,0,0-5.64,1.68,2.32,15.37,0,0-7.85-.86-6.45-9.72,0,0-2.78,2.14-1,7.07C705.54,236.89,697.79,229.35,716.48,216.13Z" transform="translate(-75.6 -136.7)"/><path class="cls-7" d="M741.49,193.15s-5.58.64-7.6,9.63c0,0-2.09-2.18,1.3-6.17,0,0-4.21-.66-3.28,10.77,0,0-4.86-3-1.18-8.37,0,0-2.49.53-2.87,4.31C727.86,203.32,725.14,196,741.49,193.15Z" transform="translate(-75.6 -136.7)"/><path class="cls-7" d="M775.32,209.17s1.71-5.94-6.57-11.79c0,0,3.1-1.2,5.72,3.93,0,0,2.45-4-9.55-7.88,0,0,5.1-3.67,9,2.34,0,0,.5-2.76-3.17-4.74C770.75,191,779.36,191.37,775.32,209.17Z" transform="translate(-75.6 -136.7)"/><path class="cls-7" d="M731.57,258.82s2.07,2.63,7.28.84c0,0-.46,1.75-3.55,1.28,0,0,1,2.35,6.51-1.71,0,0,0,3.41-3.89,3.22,0,0,1.05,1.1,3.09.11C741,262.56,738.13,266.24,731.57,258.82Z" transform="translate(-75.6 -136.7)"/></g><g id="_6" data-name="6"><path class="cls-5" d="M189.72,424.15s10.11-3.07,13.71-7.92a56.83,56.83,0,0,1-63.27-31.32,71.52,71.52,0,0,1-17.84-24.08S132.24,371,135.89,372a56.53,56.53,0,0,1,4.28-35.56h0c0-.28-.51-5.94,3.35-28.06,0,0-1.32,14.43-.6,18.08,0,0,5.14-9.75,3.64-18.89l1.5,9.14s2.77-14.93,5.79-17.6c0,0-1,8.34-3,17.64,0,0,9.91-12.5,23.87-19-.44.38-7.51,6.47-8.89,8.88l25.61-7.76s-5.13,1.64-7.37,5.48a55.53,55.53,0,0,1,8.7-.49s20.9-2.54,38.25,4.9c-.67-.17-4.69-1-13.14,1.59a55.39,55.39,0,0,1,7.35,4.59h0c.76.14,13,2.65,19.19,8.8,0,0-14.17-7.15-14.9-5.31a56.29,56.29,0,0,1,7.9,8.75s2.46-.35,9.13,7.22c-.4-.24-6.95-4.46-6.91-4h0a56.94,56.94,0,0,1,4.29,8.29,34.17,34.17,0,0,1,6.41,9.87s-2.36-2.79-4.15-3.35c.08.26.15.52.22.78a56.33,56.33,0,0,1,1.88,12.59v0c.24.37,3.47,5.94,2,27.34-.07-1.27-.77-14.71-2.81-15.69A56.9,56.9,0,0,1,219.73,410S217.44,417.23,189.72,424.15Z" transform="translate(-75.6 -136.7)"/><path class="cls-12" d="M237.2,365.94s-1.07-7.77-4.2-11a42.19,42.19,0,0,1-30.34,42.72,53,53,0,0,1-19.73,10.26s8.62-6.08,9.78-8.63A42,42,0,0,1,167.15,392h0c-.21,0-4.41-.32-20.17-5.73,0,0,10.41,2.65,13.18,2.54,0,0-6.55-4.9-13.42-4.87l6.87,0s-10.62-3.78-12.22-6.3c0,0,6,1.7,12.58,4.23,0,0-8-8.72-11.15-19.71.23.36,3.87,6.25,5.47,7.55L145.59,350s.6,4,3.15,6a41.46,41.46,0,0,1,.66-6.43s.58-15.61,8-27.46c-.2.47-1.26,3.32-.37,9.82a40.6,40.6,0,0,1,4.23-4.85h0c.2-.54,3.47-9.25,8.7-13,0,0-6.9,9.55-5.64,10.3a42.78,42.78,0,0,1,7.34-4.77s0-1.84,6.36-5.84c-.23.26-4.08,4.57-3.71,4.6h0a41.94,41.94,0,0,1,6.58-2.18,25.38,25.38,0,0,1,8-3.55s-2.32,1.41-2.93,2.65l.59-.06a42.58,42.58,0,0,1,9.45.08h0c.3-.13,4.76-1.85,20.28,1.71-.94-.1-10.87-1.15-11.83.23a42.2,42.2,0,0,1,25.85,25S235.36,344.81,237.2,365.94Z" transform="translate(-75.6 -136.7)"/><path class="cls-7" d="M217.48,383.44s7.6-1.52,9.34-14.13c0,0,3.12,2.77-1.08,8.65,0,0,5.87.42,3.27-15.2,0,0,7,3.58,2.59,11.38,0,0,3.37-1,3.45-6.26C235.05,367.88,239.64,377.67,217.48,383.44Z" transform="translate(-75.6 -136.7)"/><path class="cls-7" d="M158.83,346.57s-6.57,4.1-3.75,16.51c0,0-3.9-1.48-2.05-8.46,0,0-5.64,1.67,2.32,15.36,0,0-7.85-.86-6.45-9.72,0,0-2.78,2.14-1,7.07C147.89,367.33,140.14,359.79,158.83,346.57Z" transform="translate(-75.6 -136.7)"/><path class="cls-7" d="M183.84,323.59s-5.57.64-7.6,9.63c0,0-2.08-2.18,1.3-6.17,0,0-4.21-.66-3.27,10.77,0,0-4.87-3-1.19-8.37,0,0-2.49.53-2.86,4.31C170.22,333.76,167.5,326.41,183.84,323.59Z" transform="translate(-75.6 -136.7)"/><path class="cls-7" d="M217.68,339.61s1.71-5.94-6.58-11.79c0,0,3.1-1.2,5.73,3.93,0,0,2.45-4-9.56-7.88,0,0,5.11-3.66,9,2.34,0,0,.51-2.76-3.17-4.73C213.1,321.48,221.71,321.81,217.68,339.61Z" transform="translate(-75.6 -136.7)"/><path class="cls-7" d="M173.92,389.26s2.07,2.64,7.28.84c0,0-.45,1.75-3.55,1.28,0,0,1,2.35,6.51-1.71,0,0,0,3.41-3.89,3.22,0,0,1.06,1.1,3.09.11C183.36,393,180.48,396.68,173.92,389.26Z" transform="translate(-75.6 -136.7)"/></g><g id="_7" data-name="7"><path class="cls-5" d="M309.93,296.31s-8.42,6.38-10.11,12.18A56.82,56.82,0,0,1,370,315.9a71.53,71.53,0,0,1,25.09,16.38s-12.83-6.1-16.61-5.78a56.61,56.61,0,0,1,8.34,34.84h0c.12.25,2.54,5.39,6.6,27.47,0,0-3.77-14-5.72-17.16,0,0-1.44,10.93,3.15,19l-4.59-8.05s2.59,15,.69,18.52c0,0-2-8.17-3.35-17.57,0,0-4.95,15.15-15.79,26.11.28-.5,4.8-8.67,5.26-11.41L351.77,414.4s4.25-3.31,5-7.69a56.06,56.06,0,0,1-8,3.48s-18.73,9.63-37.58,8.68c.69-.07,4.74-.71,11.78-6.05a55.86,55.86,0,0,1-8.49-1.75h0c-.77.13-13.15,2-21.06-1.59,0,0,15.77,1.79,15.82-.19a56.59,56.59,0,0,1-10.45-5.47s-2.18,1.19-11.06-3.6c.45.09,8.06,1.77,7.86,1.31h0a56.72,56.72,0,0,1-6.9-6.29,34.27,34.27,0,0,1-9.44-7s3.18,1.79,5.05,1.69c-.16-.21-.32-.43-.47-.65a56.54,56.54,0,0,1-6.14-11.16h0c-.36-.27-5.32-4.36-11.4-24.94.51,1.17,5.83,13.53,8.09,13.74A56.92,56.92,0,0,1,286.69,320S286.34,312.42,309.93,296.31Z" transform="translate(-75.6 -136.7)"/><path class="cls-13" d="M285.62,367.38s3.7,6.92,7.75,8.84A42.18,42.18,0,0,1,307,325.62a53,53,0,0,1,14.94-16.47s-6,8.69-6.18,11.49a42,42,0,0,1,26.51-2h0c.21-.06,4.25-1.23,20.91-1.63,0,0-10.69,1.13-13.25,2.19,0,0,7.85,2.33,14.28-.09l-6.43,2.42s11.27-.15,13.65,1.65c0,0-6.22.5-13.27.41,0,0,10.53,5.4,17.3,14.62-.34-.27-5.8-4.53-7.76-5.19l9.36,17.52s-1.93-3.5-5.05-4.57a41.46,41.46,0,0,1,1.62,6.26s4.87,14.85,2,28.55c0-.51,0-3.55-3.06-9.34a42.06,42.06,0,0,1-2.28,6h0c0,.58,0,9.88-3.63,15.25,0,0,3.15-11.35,1.71-11.62a41.71,41.71,0,0,1-5.23,7s.62,1.74-3.93,7.69c.12-.32,2.24-5.71,1.88-5.61h0a40.83,40.83,0,0,1-5.41,4.32,25.21,25.21,0,0,1-6.25,6.1s1.68-2.13,1.83-3.5l-.53.27a42.28,42.28,0,0,1-8.89,3.19h0c-.23.23-3.81,3.39-19.6,5.44.92-.24,10.59-2.69,11-4.33a42.18,42.18,0,0,1-32.93-14.49S294.67,386.56,285.62,367.38Z" transform="translate(-75.6 -136.7)"/><path class="cls-7" d="M298,344.12s-6.59,4.06-3.85,16.49c0,0-3.89-1.5-2-8.48,0,0-5.65,1.64,2.22,15.38,0,0-7.84-.91-6.38-9.76,0,0-2.8,2.12-1.06,7.06C287,364.81,279.26,357.23,298,344.12Z" transform="translate(-75.6 -136.7)"/><path class="cls-7" d="M365.83,358.34s4.74-6.13-2.22-16.79c0,0,4.18,0,4.87,7.23,0,0,4.7-3.53-7.51-13.61,0,0,7.66-1.92,9.42,6.88,0,0,1.87-3-1.51-7C368.88,335.07,378.77,339.45,365.83,358.34Z" transform="translate(-75.6 -136.7)"/><path class="cls-7" d="M350.35,388.57s5-2.53,3.79-11.67c0,0,2.71,1.32.92,6.24,0,0,4.18-.84-.66-11.24,0,0,5.6,1.14,4,7.44,0,0,2.15-1.37,1.19-5C359.6,374.3,364.7,380.25,350.35,388.57Z" transform="translate(-75.6 -136.7)"/><path class="cls-7" d="M313.06,385.3s.46,6.15,10.26,8.76c0,0-2.49,2.21-6.73-1.69,0,0-.91,4.6,11.7,4.07,0,0-3.52,5.21-9.25.94,0,0,.48,2.76,4.61,3.33C323.65,400.71,315.46,403.38,313.06,385.3Z" transform="translate(-75.6 -136.7)"/><path class="cls-7" d="M336.86,323.54s-2.86-1.75-7.12,1.74c0,0-.18-1.8,2.88-2.43,0,0-1.74-1.86-5.5,3.86,0,0-1.18-3.2,2.52-4.37,0,0-1.37-.66-2.93,1C326.71,323.31,328.13,318.86,336.86,323.54Z" transform="translate(-75.6 -136.7)"/></g><g id="_8" data-name="8"><path class="cls-5" d="M531.24,377.24s-.36-10.56-4.12-15.29A56.84,56.84,0,0,1,480.57,415a71.5,71.5,0,0,1-27.86,11s12.39-7,14.3-10.23a56.54,56.54,0,0,1-33.26-13.29h0c-.28-.05-5.87-1-26.25-10.46,0,0,13.6,5,17.32,5.23,0,0-8.1-7.48-17.32-8.38l9.22.9s-13.72-6.52-15.52-10.12c0,0,7.81,3.1,16.28,7.4,0,0-9.52-12.79-12.22-28,.25.52,4.32,8.92,6.29,10.88l-.9-26.75s.26,5.38,3.39,8.53a55.86,55.86,0,0,1,1.77-8.53s2.93-20.85,14.58-35.7c-.34.6-2.15,4.28-1.85,13.11a56.29,56.29,0,0,1,6.33-5.92h0c.34-.7,5.92-11.92,13.45-16.28,0,0-10.56,11.85-9,13a56.71,56.71,0,0,1,10.49-5.38s.29-2.47,9.33-7c-.34.32-6.1,5.57-5.61,5.66h0a56.18,56.18,0,0,1,9.11-2,34.2,34.2,0,0,1,11.19-3.66s-3.3,1.57-4.3,3.15h.81A56.64,56.64,0,0,1,483,303.73h0c.42-.14,6.63-1.83,26.94,5.08-1.25-.26-14.41-3-15.89-1.32a56.9,56.9,0,0,1,31.21,37.11S531.69,348.67,531.24,377.24Z" transform="translate(-75.6 -136.7)"/><path class="cls-14" d="M487.21,316.38s-7.79-1-11.69,1.23A42.2,42.2,0,0,1,509,357.93a53.07,53.07,0,0,1,4.84,21.7S510.17,369.74,508,368a42,42,0,0,1-13.62,22.83h0c-.07.2-1.45,4.18-10.73,18,0,0,5.24-9.38,5.85-12.08,0,0-6.43,5.06-8.16,11.71l1.73-6.65s-6.38,9.3-9.22,10.19c0,0,3.18-5.36,7.32-11.06,0,0-10.49,5.48-21.92,5.69.41-.12,7-2.13,8.71-3.34l-19.71-2.46s4,.43,6.65-1.49a41,41,0,0,1-6-2.3s-14.94-4.58-24.46-14.85c.4.32,2.88,2.08,9.39,2.89a41.84,41.84,0,0,1-3.6-5.33h0c-.47-.33-8-5.73-10.36-11.76,0,0,7.45,9.12,8.5,8.1a41.74,41.74,0,0,1-2.71-8.32s-1.78-.5-4-7.65c.2.29,3.37,5.12,3.5,4.77h0a40.78,40.78,0,0,1-.41-6.92,25.09,25.09,0,0,1-1.38-8.62s.77,2.6,1.81,3.51c0-.19,0-.39.09-.59a42,42,0,0,1,2.51-9.11h0c-.05-.32-.56-5.07,6.87-19.15-.33.88-3.91,10.2-2.82,11.49a42.23,42.23,0,0,1,30.84-18.54S466.32,312.72,487.21,316.38Z" transform="translate(-75.6 -136.7)"/><path class="cls-7" d="M499.05,339.94s.48-7.73-11.25-12.66c0,0,3.47-2.31,8.08,3.26,0,0,1.92-5.56-13.85-7.06,0,0,5.27-5.88,11.66.42,0,0-.12-3.51-5.16-4.94C488.53,319,499.17,317,499.05,339.94Z" transform="translate(-75.6 -136.7)"/><path class="cls-7" d="M448.32,387.12s2.27,7.41,15,7.87c0,0-2.43,3.39-8.71-.2,0,0,.17,5.89,15.45,1.72,0,0-2.85,7.36-11.06,3.73,0,0,1.36,3.24,6.58,2.8C465.57,403,456.29,408.59,448.32,387.12Z" transform="translate(-75.6 -136.7)"/><path class="cls-7" d="M432.55,357s-.82,5.55,7.36,9.82c0,0-2.65,1.46-5.64-2.85,0,0-1.72,3.9,9.57,5.94,0,0-4.16,3.93-8.4-1,0,0-.12,2.55,3.43,3.88C438.87,372.82,431.07,373.56,432.55,357Z" transform="translate(-75.6 -136.7)"/><path class="cls-7" d="M456.74,328.47s-5.29-3.18-13.08,3.32c0,0-.36-3.31,5.27-4.52,0,0-3.24-3.4-10.07,7.2,0,0-2.23-5.88,4.57-8.09,0,0-2.53-1.2-5.39,1.84C438,328.22,440.58,320,456.74,328.47Z" transform="translate(-75.6 -136.7)"/><path class="cls-7" d="M493.46,383.53s3.08-1.33,2.68-6.82c0,0,1.58.89.32,3.76,0,0,2.53-.35,0-6.73,0,0,3.29.89,2.11,4.59,0,0,1.33-.74.9-3C499.5,375.37,502.32,379.1,493.46,383.53Z" transform="translate(-75.6 -136.7)"/></g><g id="_9" data-name="9"><path class="cls-5" d="M603,423.5s10.11-3.07,13.72-7.92a56.85,56.85,0,0,1-63.28-31.32,71.52,71.52,0,0,1-17.84-24.08s9.92,10.18,13.57,11.19a56.53,56.53,0,0,1,4.28-35.56h0c0-.29-.51-5.94,3.35-28.06,0,0-1.32,14.43-.6,18.08,0,0,5.15-9.75,3.64-18.89l1.51,9.14s2.77-14.94,5.78-17.6c0,0-1,8.34-3,17.63,0,0,9.91-12.49,23.87-19-.44.37-7.5,6.47-8.89,8.88l25.62-7.76s-5.14,1.64-7.37,5.47a56.55,56.55,0,0,1,8.69-.48s20.91-2.54,38.25,4.9c-.66-.18-4.69-1-13.14,1.58a56.51,56.51,0,0,1,7.35,4.6s0,0,0,0c.77.15,13,2.66,19.2,8.81,0,0-14.17-7.15-14.9-5.31a56.23,56.23,0,0,1,7.89,8.75s2.47-.36,9.13,7.22c-.4-.24-6.95-4.46-6.91-4h0a55.86,55.86,0,0,1,4.29,8.28,34.46,34.46,0,0,1,6.41,9.87s-2.36-2.78-4.15-3.34c.08.26.15.52.22.78A56.84,56.84,0,0,1,661.64,358v0c.24.37,3.48,5.93,2,27.34-.07-1.28-.77-14.71-2.82-15.7A56.93,56.93,0,0,1,633,409.37S630.74,416.58,603,423.5Z" transform="translate(-75.6 -136.7)"/><path class="cls-15" d="M650.49,365.28s-1.07-7.77-4.2-11A42.18,42.18,0,0,1,616,397a53,53,0,0,1-19.73,10.26s8.62-6.08,9.78-8.64a41.89,41.89,0,0,1-25.56-7.28h0c-.21,0-4.41-.33-20.17-5.73,0,0,10.42,2.65,13.18,2.54,0,0-6.55-4.9-13.42-4.87l6.87,0s-10.62-3.78-12.22-6.3c0,0,6,1.7,12.58,4.23,0,0-8-8.72-11.14-19.72.22.37,3.86,6.26,5.47,7.56l-2.7-19.68s.6,3.95,3.15,6a41.46,41.46,0,0,1,.66-6.43s.58-15.62,8.06-27.46c-.21.46-1.27,3.32-.38,9.82a41.62,41.62,0,0,1,4.23-4.86h0c.19-.55,3.46-9.25,8.69-13,0,0-6.9,9.55-5.63,10.3A42.31,42.31,0,0,1,585,319s0-1.85,6.36-5.85c-.22.26-4.08,4.58-3.71,4.61h0a41.48,41.48,0,0,1,6.57-2.18,25.38,25.38,0,0,1,8-3.55s-2.31,1.41-2.93,2.65l.6-.07a41.89,41.89,0,0,1,9.44.09h0c.3-.14,4.75-1.85,20.27,1.71-.94-.1-10.87-1.15-11.83.23a42.24,42.24,0,0,1,25.86,25S648.66,344.16,650.49,365.28Z" transform="translate(-75.6 -136.7)"/><path class="cls-7" d="M630.77,382.79s7.6-1.52,9.34-14.13c0,0,3.13,2.76-1.07,8.65,0,0,5.87.42,3.26-15.2,0,0,7,3.58,2.59,11.38,0,0,3.37-1,3.45-6.26C648.34,367.23,652.93,377,630.77,382.79Z" transform="translate(-75.6 -136.7)"/><path class="cls-7" d="M572.12,345.91s-6.57,4.11-3.74,16.52c0,0-3.9-1.48-2-8.47,0,0-5.64,1.68,2.31,15.37,0,0-7.84-.86-6.44-9.73,0,0-2.79,2.15-1,7.08C561.18,366.68,553.43,359.14,572.12,345.91Z" transform="translate(-75.6 -136.7)"/><path class="cls-7" d="M597.14,322.94s-5.58.63-7.6,9.63c0,0-2.09-2.18,1.3-6.18,0,0-4.22-.66-3.28,10.78,0,0-4.86-3-1.18-8.37,0,0-2.49.53-2.87,4.31C583.51,333.11,580.79,325.76,597.14,322.94Z" transform="translate(-75.6 -136.7)"/><path class="cls-7" d="M631,339s1.71-5.94-6.58-11.79c0,0,3.1-1.2,5.73,3.93,0,0,2.45-4-9.56-7.88,0,0,5.11-3.67,9,2.33,0,0,.51-2.75-3.17-4.73C626.39,320.82,635,321.16,631,339Z" transform="translate(-75.6 -136.7)"/><path class="cls-7" d="M587.21,388.61s2.08,2.63,7.28.84c0,0-.45,1.75-3.54,1.28,0,0,1,2.34,6.5-1.72,0,0,0,3.42-3.88,3.23,0,0,1,1.1,3.09.11C596.66,392.35,593.78,396,587.21,388.61Z" transform="translate(-75.6 -136.7)"/></g><g id="_10" data-name="10"><path class="cls-5" d="M785.2,302.27s-10.05-3.26-15.78-1.34a56.85,56.85,0,0,1,34,61.86,71.54,71.54,0,0,1,.88,30s-2.32-14-4.74-16.93a56.57,56.57,0,0,1-23.84,26.73h0c-.15.25-3,5.16-18.79,21.11,0,0,9.33-11.08,10.83-14.5,0,0-9.8,5.07-13.79,13.43l4-8.36s-10.81,10.67-14.8,11.13c0,0,5.57-6.28,12.5-12.78,0,0-15.27,4.59-30.45,2,.58-.06,9.86-1,12.38-2.21l-25.46-8.27s5.15,1.59,9.18-.28a55.68,55.68,0,0,1-7.42-4.57s-18.6-9.87-28.59-25.88c.45.52,3.29,3.48,11.7,6.21a56,56,0,0,1-3.41-8v0c-.54-.55-9.18-9.63-10.71-18.19,0,0,7.54,14,9.19,12.88a56.44,56.44,0,0,1-1.48-11.7s-2.23-1.12-3.37-11.14c.19.42,3.16,7.63,3.41,7.2h0a55.43,55.43,0,0,1,1.21-9.25,34.16,34.16,0,0,1,.38-11.77s.35,3.64,1.49,5.12l.27-.77a56.59,56.59,0,0,1,5.65-11.4v0c0-.44.54-6.86,14-23.6C713,300,705.86,311.42,707,313.4a56.89,56.89,0,0,1,45.53-16.68S758.5,292.11,785.2,302.27Z" transform="translate(-75.6 -136.7)"/><path class="cls-16" d="M713,322.91s-3.56,7-2.82,11.41a42.18,42.18,0,0,1,49.31-17.72,53.18,53.18,0,0,1,22,2.85s-10.54.07-13,1.5a42,42,0,0,1,16.81,20.59h0c.16.13,3.44,2.78,13.28,16.23,0,0-7-8.13-9.36-9.63,0,0,2.56,7.77,8.23,11.67l-5.67-3.9s6.57,9.17,6.44,12.15c0,0-3.95-4.82-7.91-10.66,0,0,1.58,11.73-2.12,22.55,0-.43.4-7.35-.17-9.33l-9,17.69s1.77-3.58.87-6.75a41.37,41.37,0,0,1-4.22,4.9S766.3,399,753.4,404.4c.44-.27,2.94-2,5.92-7.85a40.71,40.71,0,0,1-6.24,1.57h0c-.48.34-8.13,5.61-14.59,5.74,0,0,11.12-3.9,10.51-5.24a41.29,41.29,0,0,1-8.74-.28s-1.08,1.5-8.56,1.17c.33-.09,6-1.43,5.67-1.66h0a42,42,0,0,1-6.64-2,25.35,25.35,0,0,1-8.58-1.64s2.71.16,3.92-.5l-.53-.29a42.08,42.08,0,0,1-7.7-5.47h0c-.32-.06-5-1.19-15.66-13,.72.62,8.26,7.15,9.84,6.57a42.26,42.26,0,0,1-6.92-35.32S702.41,341.3,713,322.91Z" transform="translate(-75.6 -136.7)"/><path class="cls-7" d="M739.16,319.81s-7.1-3.09-15.74,6.26c0,0-1-4.05,5.82-6.48,0,0-4.57-3.7-11.36,10.61,0,0-3.73-7,4.37-10.82,0,0-3.34-1.09-6.4,3.17C715.85,322.55,717.68,311.89,739.16,319.81Z" transform="translate(-75.6 -136.7)"/><path class="cls-7" d="M766.21,383.59s7.74.39,12.52-11.41c0,0,2.35,3.44-3.16,8.12,0,0,5.59,1.85,6.88-13.94,0,0,5.95,5.2-.27,11.67,0,0,3.52-.17,4.87-5.23C787.05,372.8,789.11,383.42,766.21,383.59Z" transform="translate(-75.6 -136.7)"/><path class="cls-7" d="M732.56,388.15s4.94,2.67,11.74-3.56c0,0,.46,3-4.6,4.32,0,0,3.08,2.95,8.85-7,0,0,2.27,5.25-3.82,7.54,0,0,2.35,1,4.82-1.9C749.55,387.59,747.58,395.18,732.56,388.15Z" transform="translate(-75.6 -136.7)"/><path class="cls-7" d="M714,355.67s-4.8,3.89-1.34,13.43c0,0-3.23-.79-2.46-6.49,0,0-4.29,1.88,3.35,11.92,0,0-6.29.09-6.06-7.06,0,0-2,2-.1,5.7C707.34,373.17,700.47,368,714,355.67Z" transform="translate(-75.6 -136.7)"/><path class="cls-7" d="M778.23,339.93s-.2-3.34-5.5-4.85c0,0,1.38-1.17,3.65,1,0,0,.53-2.49-6.32-2.31,0,0,2-2.8,5-.43,0,0-.24-1.5-2.47-1.85C772.62,331.47,777.09,330.09,778.23,339.93Z" transform="translate(-75.6 -136.7)"/></g></g><g id="_10-20" data-name="10-20"><g id="_11" data-name="11"><path class="cls-5" d="M317.56,251.15s-.36-10.56-4.12-15.29a56.84,56.84,0,0,1-46.55,53.08A71.5,71.5,0,0,1,239,300s12.39-7,14.3-10.23a56.54,56.54,0,0,1-33.26-13.29h0c-.28,0-5.87-1-26.25-10.46,0,0,13.6,5,17.32,5.23,0,0-8.1-7.48-17.32-8.38l9.22.9s-13.72-6.52-15.52-10.12c0,0,7.81,3.1,16.28,7.4,0,0-9.52-12.79-12.22-28,.25.52,4.32,8.92,6.29,10.88L197,217.2s.26,5.38,3.39,8.53a55.86,55.86,0,0,1,1.77-8.53s2.93-20.85,14.58-35.7c-.34.6-2.15,4.28-1.85,13.11a56.29,56.29,0,0,1,6.33-5.92h0c.34-.7,5.92-11.92,13.45-16.28,0,0-10.56,11.85-9,13a56.71,56.71,0,0,1,10.49-5.38s.29-2.47,9.33-7c-.34.32-6.1,5.57-5.61,5.66h0a56.18,56.18,0,0,1,9.11-2,34.2,34.2,0,0,1,11.19-3.66s-3.3,1.57-4.3,3.15h.81a56.64,56.64,0,0,1,12.65,1.42h0c.42-.14,6.63-1.83,26.94,5.08-1.25-.26-14.41-3-15.89-1.32a56.9,56.9,0,0,1,31.21,37.11S318,222.58,317.56,251.15Z" transform="translate(-75.6 -136.7)"/><path class="cls-17" d="M273.53,190.28s-7.78-1-11.69,1.24a42.19,42.19,0,0,1,33.48,40.31,53.06,53.06,0,0,1,4.83,21.71s-3.65-9.89-5.82-11.68a42,42,0,0,1-13.63,22.83h0c-.07.2-1.44,4.18-10.73,18,0,0,5.25-9.39,5.86-12.09,0,0-6.43,5.07-8.17,11.72l1.74-6.65S263,285,260.17,285.89c0,0,3.19-5.36,7.33-11.07,0,0-10.49,5.49-21.92,5.69.41-.12,7-2.12,8.7-3.34l-19.71-2.46s4,.44,6.65-1.49a40.88,40.88,0,0,1-6-2.29s-14.94-4.58-24.47-14.85c.4.32,2.89,2.07,9.4,2.88a40.15,40.15,0,0,1-3.6-5.33h0c-.47-.33-8.05-5.73-10.36-11.75,0,0,7.45,9.12,8.5,8.09a42.32,42.32,0,0,1-2.72-8.31s-1.77-.51-4-7.65c.19.28,3.37,5.12,3.49,4.77h0a42.83,42.83,0,0,1-.41-6.91,25.52,25.52,0,0,1-1.37-8.63s.76,2.6,1.8,3.52l.09-.6A42,42,0,0,1,214,217v0c-.05-.32-.57-5.07,6.87-19.15-.34.89-3.91,10.21-2.82,11.49a42.23,42.23,0,0,1,30.84-18.54S252.65,186.62,273.53,190.28Z" transform="translate(-75.6 -136.7)"/><path class="cls-7" d="M285.37,213.85s.49-7.74-11.25-12.66c0,0,3.48-2.31,8.08,3.26,0,0,1.92-5.57-13.84-7.07,0,0,5.27-5.87,11.66.42,0,0-.12-3.51-5.16-4.93C274.86,192.87,285.5,191,285.37,213.85Z" transform="translate(-75.6 -136.7)"/><path class="cls-7" d="M234.64,261s2.28,7.4,15,7.87c0,0-2.43,3.39-8.71-.2,0,0,.17,5.88,15.45,1.72,0,0-2.86,7.36-11.06,3.72,0,0,1.36,3.25,6.57,2.8C251.89,276.94,242.61,282.49,234.64,261Z" transform="translate(-75.6 -136.7)"/><path class="cls-7" d="M218.88,230.94s-.82,5.55,7.35,9.82c0,0-2.65,1.46-5.63-2.84,0,0-1.72,3.9,9.56,5.94,0,0-4.15,3.92-8.39-1,0,0-.12,2.54,3.43,3.88C225.2,246.73,217.4,247.46,218.88,230.94Z" transform="translate(-75.6 -136.7)"/><path class="cls-7" d="M243.07,202.37s-5.3-3.18-13.08,3.32c0,0-.36-3.3,5.27-4.52,0,0-3.24-3.4-10.08,7.21,0,0-2.23-5.88,4.57-8.1,0,0-2.53-1.2-5.38,1.84C224.37,202.12,226.91,193.89,243.07,202.37Z" transform="translate(-75.6 -136.7)"/><path class="cls-7" d="M279.78,257.43s3.08-1.32,2.69-6.81c0,0,1.57.88.32,3.75,0,0,2.52-.35,0-6.72,0,0,3.3.88,2.12,4.58,0,0,1.33-.73.9-3C285.83,249.27,288.65,253,279.78,257.43Z" transform="translate(-75.6 -136.7)"/></g><g id="_12" data-name="12"><path class="cls-5" d="M430,176.77s-10.05-3.26-15.77-1.34a56.83,56.83,0,0,1,34,61.86,71.54,71.54,0,0,1,.88,30s-2.32-14-4.74-16.94a56.59,56.59,0,0,1-23.84,26.74h0c-.14.24-3,5.16-18.79,21.11,0,0,9.33-11.09,10.83-14.5,0,0-9.8,5.06-13.79,13.42l4-8.36S392,299.41,388,299.87c0,0,5.58-6.28,12.51-12.78,0,0-15.27,4.59-30.46,2,.58-.05,9.86-1,12.38-2.2L357,278.57s5.15,1.59,9.18-.28a57.41,57.41,0,0,1-7.42-4.57s-18.6-9.87-28.58-25.88c.44.52,3.29,3.48,11.69,6.21a56,56,0,0,1-3.41-8,0,0,0,0,1,0,0c-.55-.56-9.19-9.63-10.72-18.19,0,0,7.54,14,9.19,12.87a56.34,56.34,0,0,1-1.48-11.69s-2.23-1.12-3.36-11.15c.18.43,3.15,7.64,3.4,7.21h0a56.22,56.22,0,0,1,1.21-9.25,34.16,34.16,0,0,1,.38-11.77s.35,3.64,1.49,5.12l.27-.77A56.94,56.94,0,0,1,344.45,197h0c0-.45.54-6.86,14-23.6-.67,1.09-7.77,12.51-6.66,14.49a56.89,56.89,0,0,1,45.53-16.68S403.29,166.61,430,176.77Z" transform="translate(-75.6 -136.7)"/><path class="cls-18" d="M357.76,197.41s-3.56,7-2.82,11.41a42.18,42.18,0,0,1,49.31-17.72A53,53,0,0,1,426.31,194s-10.55.06-13,1.5A42,42,0,0,1,430.16,216h0c.17.14,3.44,2.79,13.28,16.23,0,0-7-8.13-9.36-9.62,0,0,2.57,7.77,8.23,11.67l-5.66-3.9s6.56,9.17,6.43,12.15c0,0-3.95-4.82-7.91-10.66,0,0,1.59,11.73-2.12,22.55,0-.43.41-7.35-.17-9.33l-9,17.69s1.76-3.58.86-6.76A41.53,41.53,0,0,1,420.5,261s-9.4,12.48-22.31,17.93c.44-.27,2.94-2,5.92-7.85a41.59,41.59,0,0,1-6.24,1.57h0c-.47.33-8.13,5.61-14.59,5.73,0,0,11.12-3.89,10.51-5.23a42,42,0,0,1-8.74-.28s-1.08,1.5-8.56,1.16c.33-.08,6-1.42,5.67-1.65h0a41,41,0,0,1-6.64-2,25.17,25.17,0,0,1-8.58-1.65s2.71.17,3.92-.49l-.52-.29a42.16,42.16,0,0,1-7.71-5.47h0c-.32-.06-5-1.19-15.66-13,.72.61,8.26,7.15,9.84,6.57a42.26,42.26,0,0,1-6.92-35.32S347.2,215.79,357.76,197.41Z" transform="translate(-75.6 -136.7)"/><path class="cls-7" d="M384,194.31s-7.1-3.09-15.74,6.26c0,0-1-4,5.83-6.48,0,0-4.58-3.7-11.37,10.6,0,0-3.73-6.95,4.38-10.82,0,0-3.35-1.08-6.41,3.17C360.64,197,362.47,186.39,384,194.31Z" transform="translate(-75.6 -136.7)"/><path class="cls-7" d="M411,258.09s7.74.39,12.52-11.41c0,0,2.35,3.44-3.16,8.12,0,0,5.59,1.84,6.88-13.94,0,0,5.95,5.19-.26,11.67,0,0,3.51-.17,4.87-5.23C431.85,247.3,433.9,257.92,411,258.09Z" transform="translate(-75.6 -136.7)"/><path class="cls-7" d="M377.35,262.65s4.94,2.66,11.74-3.56c0,0,.47,3-4.6,4.32,0,0,3.08,2.95,8.85-7,0,0,2.27,5.24-3.81,7.54,0,0,2.34,1,4.81-1.9C394.34,262.09,392.37,269.67,377.35,262.65Z" transform="translate(-75.6 -136.7)"/><path class="cls-7" d="M358.74,230.17s-4.8,3.89-1.34,13.43c0,0-3.23-.79-2.46-6.5,0,0-4.29,1.89,3.35,11.93,0,0-6.29.09-6.06-7.06,0,0-2,2-.1,5.69C352.13,247.66,345.26,242.47,358.74,230.17Z" transform="translate(-75.6 -136.7)"/><path class="cls-7" d="M423,214.43s-.2-3.35-5.49-4.85c0,0,1.37-1.18,3.64,1,0,0,.53-2.49-6.32-2.31,0,0,2-2.8,5-.43,0,0-.23-1.5-2.47-1.85C417.41,206,421.88,204.59,423,214.43Z" transform="translate(-75.6 -136.7)"/></g><g id="_13" data-name="13"><path class="cls-5" d="M504,174.87s-8.42,6.39-10.12,12.19a56.84,56.84,0,0,1,70.21,7.4,71.48,71.48,0,0,1,25.09,16.39s-12.83-6.11-16.6-5.78a56.51,56.51,0,0,1,8.33,34.83h0c.12.26,2.53,5.4,6.6,27.48,0,0-3.77-14-5.72-17.17,0,0-1.44,10.94,3.14,19l-4.58-8s2.59,15,.69,18.51c0,0-2-8.17-3.35-17.57,0,0-5,15.16-15.79,26.11.28-.5,4.79-8.67,5.26-11.41L545.84,293s4.24-3.32,5-7.69a56.12,56.12,0,0,1-8,3.47s-18.72,9.64-37.57,8.69c.68-.07,4.73-.72,11.77-6.05a57.26,57.26,0,0,1-8.48-1.76h0c-.76.12-13.15,2-21.05-1.6,0,0,15.77,1.79,15.81-.19a56.46,56.46,0,0,1-10.44-5.46s-2.19,1.19-11.07-3.61c.46.1,8.07,1.77,7.86,1.32h0a55,55,0,0,1-6.89-6.28,34.16,34.16,0,0,1-9.45-7s3.19,1.79,5.06,1.7c-.17-.22-.32-.44-.48-.66a57,57,0,0,1-6.14-11.15v0c-.36-.26-5.32-4.36-11.39-24.93.51,1.17,5.83,13.52,8.09,13.74a56.88,56.88,0,0,1,12.31-46.9S480.4,191,504,174.87Z" transform="translate(-75.6 -136.7)"/><path class="cls-19" d="M479.68,246s3.7,6.91,7.75,8.83a42.19,42.19,0,0,1,13.62-50.59A53.11,53.11,0,0,1,516,187.71s-6,8.7-6.17,11.5a41.91,41.91,0,0,1,26.5-2h0c.2,0,4.25-1.22,20.91-1.63,0,0-10.7,1.14-13.25,2.19,0,0,7.84,2.33,14.28-.09l-6.44,2.42s11.27-.15,13.65,1.66c0,0-6.21.49-13.26.4,0,0,10.53,5.4,17.29,14.62-.34-.26-5.8-4.52-7.75-5.18l9.36,17.52s-1.94-3.5-5-4.57a41.11,41.11,0,0,1,1.61,6.26s4.88,14.84,2,28.55c0-.51,0-3.56-3.06-9.34a40.9,40.9,0,0,1-2.28,6s0,0,0,0c0,.57,0,9.87-3.63,15.24,0,0,3.16-11.35,1.71-11.61a42.61,42.61,0,0,1-5.22,7s.61,1.74-3.94,7.69c.12-.33,2.24-5.71,1.89-5.61h0a41.49,41.49,0,0,1-5.41,4.32,25.57,25.57,0,0,1-6.25,6.11s1.68-2.13,1.83-3.51c-.18.1-.36.18-.54.27a41.76,41.76,0,0,1-8.89,3.2h0c-.24.23-3.82,3.39-19.61,5.43.92-.23,10.6-2.69,11-4.32a42.24,42.24,0,0,1-32.94-14.49S488.74,265.12,479.68,246Z" transform="translate(-75.6 -136.7)"/><path class="cls-7" d="M492.1,222.68s-6.6,4.07-3.86,16.5c0,0-3.89-1.51-2-8.48,0,0-5.65,1.64,2.22,15.38,0,0-7.85-.91-6.39-9.77,0,0-2.8,2.13-1.05,7.07C481,243.38,473.32,235.79,492.1,222.68Z" transform="translate(-75.6 -136.7)"/><path class="cls-7" d="M559.9,236.91s4.74-6.14-2.22-16.79c0,0,4.17,0,4.86,7.22,0,0,4.71-3.53-7.51-13.6,0,0,7.66-1.92,9.43,6.88,0,0,1.86-3-1.51-7C563,213.64,572.84,218,559.9,236.91Z" transform="translate(-75.6 -136.7)"/><path class="cls-7" d="M544.42,267.14s5-2.54,3.78-11.68c0,0,2.72,1.33.93,6.25,0,0,4.18-.85-.67-11.24,0,0,5.61,1.13,4,7.44,0,0,2.15-1.37,1.19-5C553.67,252.87,558.77,258.81,544.42,267.14Z" transform="translate(-75.6 -136.7)"/><path class="cls-7" d="M507.13,263.86s.46,6.16,10.26,8.77c0,0-2.49,2.2-6.73-1.69,0,0-.91,4.6,11.69,4.06,0,0-3.51,5.22-9.25.94,0,0,.48,2.76,4.62,3.34C517.72,279.28,509.52,282,507.13,263.86Z" transform="translate(-75.6 -136.7)"/><path class="cls-7" d="M530.93,202.11s-2.86-1.76-7.13,1.73c0,0-.17-1.79,2.89-2.42,0,0-1.74-1.87-5.51,3.86,0,0-1.18-3.21,2.53-4.38,0,0-1.37-.66-2.94,1C520.77,201.88,522.19,197.42,530.93,202.11Z" transform="translate(-75.6 -136.7)"/></g><g id="_14" data-name="14"><path class="cls-5" d="M731.2,221.41s-4.85-9.39-10.27-12a56.84,56.84,0,0,1-19.32,67.9,71.54,71.54,0,0,1-20.45,21.91s8.22-11.59,8.54-15.37A56.49,56.49,0,0,1,654,286h0c-.27.07-5.75,1.57-28.2,1.79,0,0,14.43-1.32,17.89-2.69,0,0-10.52-3.29-19.24-.16l8.72-3.13s-15.19,0-18.36-2.5c0,0,8.39-.54,17.88-.29,0,0-14.08-7.47-23-20,.45.36,7.73,6.2,10.35,7.13L607.69,242.4s2.53,4.75,6.71,6.25a56.92,56.92,0,0,1-2-8.46s-6.29-20.1-2.12-38.51c-.05.69-.11,4.79,3.94,12.64a55.82,55.82,0,0,1,3.19-8.06s0,0,0,0c0-.78.24-13.31,5.18-20.48,0,0-4.46,15.23-2.52,15.62a56.57,56.57,0,0,1,7.17-9.36s-.79-2.35,5.45-10.28c-.17.43-3.13,7.65-2.64,7.52h0a56.17,56.17,0,0,1,7.37-5.72,34.1,34.1,0,0,1,8.54-8.1s-2.31,2.83-2.54,4.69l.73-.36a56.81,56.81,0,0,1,12-4.13h0c.32-.31,5.2-4.49,26.52-6.95-1.24.3-14.33,3.43-14.93,5.61a56.91,56.91,0,0,1,44.1,20.17S719.37,195.4,731.2,221.41Z" transform="translate(-75.6 -136.7)"/><path class="cls-20" d="M665.34,185.28s-7.44,2.45-10,6.12a42.16,42.16,0,0,1,47.51,22.09A53.09,53.09,0,0,1,716.5,231S709,223.65,706.23,223a42,42,0,0,1-2.53,26.46h0c0,.21.48,4.4-2,20.88,0,0,.72-10.73.12-13.43,0,0-3.64,7.33-2.36,14.09l-1.28-6.76s-1.78,11.14-4,13.17c0,0,.58-6.21,1.87-13.14,0,0-7.12,9.45-17.36,14.53.31-.28,5.45-4.93,6.43-6.75l-18.86,6.22s3.78-1.3,5.37-4.19a41.44,41.44,0,0,1-6.45.52s-15.46,2.26-28.46-2.94c.49.11,3.49.64,9.72-1.42A41.1,41.1,0,0,1,641,267h0c-.57-.09-9.72-1.73-14.4-6.18,0,0,10.64,5.05,11.15,3.67a42.15,42.15,0,0,1-6-6.35s-1.82.31-6.9-5.2c.3.18,5.24,3.19,5.2,2.82h0a41.33,41.33,0,0,1-3.33-6.07,25.33,25.33,0,0,1-4.94-7.2s1.81,2,3.14,2.4l-.18-.57a42.19,42.19,0,0,1-1.62-9.31h0c-.18-.27-2.68-4.34-2-20.25.08.94.84,10.9,2.38,11.59a42.2,42.2,0,0,1,19.92-30S644.9,190.91,665.34,185.28Z" transform="translate(-75.6 -136.7)"/><path class="cls-7" d="M686.14,201.49s-2.88-7.19-15.59-6.62c0,0,2.15-3.57,8.7-.51,0,0-.65-5.85-15.54-.45,0,0,2.24-7.57,10.72-4.62,0,0-1.62-3.12-6.78-2.25C667.65,187,676.44,180.75,686.14,201.49Z" transform="translate(-75.6 -136.7)"/><path class="cls-7" d="M660.51,265.86s5.23,5.71,16.92.69c0,0-.75,4.1-7.95,3.55,0,0,2.67,5.24,14.69-5.07,0,0,.58,7.88-8.4,8.11,0,0,2.62,2.35,7.14-.29C682.91,272.85,676.91,281.84,660.51,265.86Z" transform="translate(-75.6 -136.7)"/><path class="cls-7" d="M633.38,245.43s1.63,5.36,10.85,5.72c0,0-1.77,2.45-6.31-.16,0,0,.11,4.27,11.19,1.27,0,0-2.08,5.33-8,2.69,0,0,1,2.35,4.76,2C645.85,257,639.12,261,633.38,245.43Z" transform="translate(-75.6 -136.7)"/><path class="cls-7" d="M643,209.25s-6.14-.61-10.39,8.6c0,0-1.75-2.83,2.82-6.34,0,0-4.38-1.68-6,10.83,0,0-4.54-4.36.66-9.28,0,0-2.8,0-4.08,4C626,217,624.76,208.51,643,209.25Z" transform="translate(-75.6 -136.7)"/><path class="cls-7" d="M699.76,243.27s2.21-2.51-.49-7.31c0,0,1.8.13,1.89,3.26,0,0,2.13-1.4-2.86-6.09,0,0,3.36-.61,3.88,3.24,0,0,.89-1.24-.46-3.06C701.72,233.31,705.87,235.48,699.76,243.27Z" transform="translate(-75.6 -136.7)"/></g><g id="_15" data-name="15"><path class="cls-5" d="M256.33,426.85s10.11-3.07,13.72-7.92a56.83,56.83,0,0,1-63.28-31.32,71.52,71.52,0,0,1-17.84-24.08s9.92,10.19,13.57,11.19a56.54,56.54,0,0,1,4.28-35.56h0c0-.28-.51-5.94,3.35-28.06,0,0-1.32,14.43-.6,18.08,0,0,5.15-9.75,3.64-18.89l1.51,9.14s2.77-14.93,5.78-17.6c0,0-1,8.34-3,17.64,0,0,9.91-12.5,23.87-19-.44.38-7.5,6.47-8.89,8.88l25.62-7.76s-5.14,1.64-7.37,5.48a55.34,55.34,0,0,1,8.69-.49s20.91-2.53,38.25,4.9c-.66-.17-4.69-1-13.14,1.59a55.39,55.39,0,0,1,7.35,4.59h0c.77.15,13,2.65,19.19,8.8,0,0-14.16-7.15-14.9-5.31a56.29,56.29,0,0,1,7.9,8.75s2.47-.35,9.13,7.23c-.4-.25-6.95-4.47-6.91-4h0a56,56,0,0,1,4.29,8.29,34.17,34.17,0,0,1,6.41,9.87s-2.36-2.79-4.15-3.35c.08.26.15.52.22.78A56.93,56.93,0,0,1,315,361.34v0c.24.37,3.48,5.94,2,27.34-.07-1.27-.78-14.71-2.82-15.69a56.92,56.92,0,0,1-27.82,39.71S284.06,419.93,256.33,426.85Z" transform="translate(-75.6 -136.7)"/><path class="cls-21" d="M303.81,368.64s-1.07-7.77-4.2-11a42.18,42.18,0,0,1-30.34,42.72,53,53,0,0,1-19.73,10.26s8.62-6.08,9.78-8.63a42,42,0,0,1-25.56-7.29h0c-.21,0-4.41-.32-20.17-5.73,0,0,10.42,2.65,13.18,2.55,0,0-6.55-4.91-13.42-4.88l6.87,0s-10.62-3.77-12.22-6.3c0,0,6,1.7,12.58,4.23,0,0-8-8.72-11.14-19.71.22.36,3.86,6.26,5.47,7.55l-2.7-19.68s.6,3.95,3.15,6a41.46,41.46,0,0,1,.66-6.43s.58-15.61,8.06-27.46c-.21.47-1.27,3.32-.38,9.82a41.52,41.52,0,0,1,4.23-4.85h0c.2-.54,3.47-9.25,8.7-13,0,0-6.9,9.55-5.63,10.3a42.31,42.31,0,0,1,7.33-4.77s0-1.84,6.36-5.84c-.23.26-4.08,4.57-3.71,4.6h0a41.48,41.48,0,0,1,6.57-2.18,25.38,25.38,0,0,1,8-3.55s-2.31,1.41-2.93,2.65l.59-.06a42.58,42.58,0,0,1,9.45.08h0c.3-.13,4.75-1.85,20.27,1.71-.94-.1-10.87-1.15-11.83.23A42.24,42.24,0,0,1,297,345S302,347.51,303.81,368.64Z" transform="translate(-75.6 -136.7)"/><path class="cls-7" d="M284.09,386.14s7.6-1.52,9.34-14.13c0,0,3.13,2.77-1.07,8.65,0,0,5.87.42,3.26-15.2,0,0,7,3.58,2.59,11.38,0,0,3.37-1,3.45-6.26C301.66,370.58,306.25,380.37,284.09,386.14Z" transform="translate(-75.6 -136.7)"/><path class="cls-7" d="M225.44,349.27s-6.57,4.1-3.74,16.51c0,0-3.9-1.48-2-8.46,0,0-5.64,1.67,2.31,15.36,0,0-7.84-.86-6.45-9.72,0,0-2.78,2.14-1,7.07C214.5,370,206.75,362.49,225.44,349.27Z" transform="translate(-75.6 -136.7)"/><path class="cls-7" d="M250.46,326.29s-5.58.64-7.6,9.63c0,0-2.09-2.18,1.3-6.17,0,0-4.22-.66-3.28,10.77,0,0-4.86-3-1.18-8.37,0,0-2.49.53-2.87,4.31C236.83,336.46,234.11,329.11,250.46,326.29Z" transform="translate(-75.6 -136.7)"/><path class="cls-7" d="M284.29,342.31s1.71-5.93-6.58-11.79c0,0,3.1-1.2,5.73,3.93,0,0,2.45-4-9.56-7.88,0,0,5.11-3.66,9,2.34,0,0,.51-2.76-3.17-4.73C279.71,324.18,288.32,324.51,284.29,342.31Z" transform="translate(-75.6 -136.7)"/><path class="cls-7" d="M240.53,392s2.08,2.64,7.28.84c0,0-.45,1.75-3.54,1.28,0,0,1,2.35,6.5-1.71,0,0,0,3.41-3.88,3.22,0,0,1.05,1.1,3.09.11C250,395.7,247.09,399.39,240.53,392Z" transform="translate(-75.6 -136.7)"/></g><g id="_16" data-name="16"><path class="cls-5" d="M376.54,299s-8.41,6.38-10.11,12.18a56.82,56.82,0,0,1,70.21,7.41A71.53,71.53,0,0,1,461.73,335s-12.83-6.1-16.6-5.78A56.6,56.6,0,0,1,453.46,364h0c.12.26,2.54,5.39,6.6,27.47,0,0-3.77-14-5.72-17.16,0,0-1.43,10.93,3.15,19l-4.58-8s2.58,15,.68,18.52c0,0-2-8.17-3.34-17.57,0,0-5,15.15-15.79,26.11.28-.5,4.79-8.67,5.26-11.41L418.38,417.1s4.25-3.31,5-7.69a56.68,56.68,0,0,1-8,3.48s-18.72,9.63-37.57,8.68c.68-.07,4.73-.71,11.77-6.05a56.36,56.36,0,0,1-8.49-1.75h0c-.77.13-13.15,2-21.06-1.59,0,0,15.77,1.79,15.82-.19a56.19,56.19,0,0,1-10.44-5.47s-2.19,1.19-11.07-3.6c.46.09,8.07,1.77,7.86,1.32h0a57.46,57.46,0,0,1-6.9-6.28,34.36,34.36,0,0,1-9.44-7s3.19,1.79,5.05,1.69c-.16-.21-.32-.43-.47-.65a56.54,56.54,0,0,1-6.14-11.16h0c-.36-.27-5.32-4.36-11.39-24.94.51,1.17,5.83,13.53,8.09,13.74a56.88,56.88,0,0,1,12.3-46.9S353,315.12,376.54,299Z" transform="translate(-75.6 -136.7)"/><path class="cls-22" d="M352.23,370.08s3.7,6.92,7.75,8.84a42.19,42.19,0,0,1,13.62-50.6,53.14,53.14,0,0,1,14.94-16.47s-6,8.69-6.17,11.49a42,42,0,0,1,26.5-2h0c.2-.06,4.25-1.23,20.9-1.63,0,0-10.69,1.13-13.24,2.19,0,0,7.84,2.33,14.27-.09l-6.43,2.42s11.27-.15,13.65,1.66c0,0-6.22.49-13.27.4,0,0,10.53,5.4,17.3,14.62-.34-.27-5.8-4.53-7.75-5.19l9.36,17.52s-1.94-3.5-5.06-4.57a41.46,41.46,0,0,1,1.62,6.26s4.88,14.85,2,28.55c0-.51,0-3.55-3.06-9.33a41.94,41.94,0,0,1-2.28,6h0c0,.58,0,9.88-3.63,15.25,0,0,3.15-11.35,1.71-11.62a41.71,41.71,0,0,1-5.23,7s.62,1.74-3.93,7.69c.12-.32,2.24-5.71,1.88-5.61h0a41.49,41.49,0,0,1-5.41,4.32,25.48,25.48,0,0,1-6.26,6.1s1.69-2.12,1.84-3.5l-.54.27a42.28,42.28,0,0,1-8.89,3.19h0c-.24.23-3.82,3.39-19.61,5.44.92-.24,10.59-2.69,11-4.32a42.23,42.23,0,0,1-32.94-14.5S361.29,389.26,352.23,370.08Z" transform="translate(-75.6 -136.7)"/><path class="cls-7" d="M364.65,346.82s-6.6,4.06-3.86,16.49c0,0-3.89-1.5-2-8.48,0,0-5.66,1.64,2.21,15.38,0,0-7.84-.91-6.38-9.76,0,0-2.8,2.13-1.06,7.06C353.57,367.51,345.87,359.93,364.65,346.82Z" transform="translate(-75.6 -136.7)"/><path class="cls-7" d="M432.45,361s4.73-6.13-2.22-16.79c0,0,4.17,0,4.86,7.23,0,0,4.71-3.53-7.51-13.61,0,0,7.66-1.92,9.42,6.88,0,0,1.87-3-1.5-7C435.5,337.77,445.38,342.15,432.45,361Z" transform="translate(-75.6 -136.7)"/><path class="cls-7" d="M417,391.27s5-2.53,3.78-11.67c0,0,2.72,1.32.92,6.24,0,0,4.18-.84-.66-11.24,0,0,5.6,1.14,4,7.44,0,0,2.15-1.37,1.19-5C426.21,377,431.32,383,417,391.27Z" transform="translate(-75.6 -136.7)"/><path class="cls-7" d="M379.68,388s.45,6.15,10.25,8.77c0,0-2.49,2.2-6.73-1.7,0,0-.91,4.6,11.7,4.07,0,0-3.52,5.21-9.25.94,0,0,.48,2.76,4.61,3.33C390.26,403.41,382.07,406.08,379.68,388Z" transform="translate(-75.6 -136.7)"/><path class="cls-7" d="M403.47,326.24s-2.86-1.75-7.12,1.74c0,0-.18-1.8,2.89-2.43,0,0-1.74-1.86-5.51,3.86,0,0-1.18-3.2,2.52-4.37,0,0-1.37-.66-2.93,1C393.32,326,394.74,321.56,403.47,326.24Z" transform="translate(-75.6 -136.7)"/></g><g id="_17" data-name="17"><path class="cls-5" d="M597.85,379.94s-.36-10.56-4.12-15.29a56.84,56.84,0,0,1-46.55,53.08,71.5,71.5,0,0,1-27.86,11s12.39-7,14.3-10.23a56.54,56.54,0,0,1-33.26-13.29h0c-.28-.05-5.87-1-26.25-10.46,0,0,13.6,5,17.32,5.23,0,0-8.1-7.48-17.32-8.38l9.22.9S469.6,386,467.8,382.42c0,0,7.81,3.1,16.28,7.4,0,0-9.52-12.79-12.22-28,.25.52,4.32,8.92,6.29,10.88l-.9-26.75s.26,5.38,3.39,8.53a55.86,55.86,0,0,1,1.77-8.53s2.93-20.85,14.58-35.7c-.34.6-2.15,4.28-1.85,13.11a56.29,56.29,0,0,1,6.33-5.92h0c.34-.7,5.92-11.92,13.45-16.28,0,0-10.56,11.85-9,13a56.71,56.71,0,0,1,10.49-5.38s.29-2.47,9.33-7c-.34.32-6.1,5.57-5.61,5.66h0a56.18,56.18,0,0,1,9.11-2,34.2,34.2,0,0,1,11.19-3.66s-3.3,1.57-4.3,3.15H537a56.64,56.64,0,0,1,12.65,1.42h0c.42-.14,6.63-1.83,26.94,5.08-1.25-.26-14.41-3-15.89-1.32a56.9,56.9,0,0,1,31.21,37.11S598.3,351.37,597.85,379.94Z" transform="translate(-75.6 -136.7)"/><path class="cls-23" d="M553.82,319.08s-7.78-1-11.69,1.24a42.17,42.17,0,0,1,33.47,40.31,53.07,53.07,0,0,1,4.84,21.7s-3.65-9.89-5.83-11.67A42,42,0,0,1,561,393.49h0c-.07.2-1.45,4.18-10.73,18,0,0,5.24-9.38,5.85-12.08,0,0-6.42,5.06-8.16,11.71l1.74-6.65s-6.38,9.3-9.23,10.19c0,0,3.18-5.36,7.32-11.06,0,0-10.48,5.48-21.92,5.69.41-.12,7-2.13,8.71-3.34l-19.71-2.46s4,.43,6.65-1.49a42.15,42.15,0,0,1-6-2.29s-14.94-4.59-24.46-14.86c.4.32,2.88,2.08,9.39,2.89a41.84,41.84,0,0,1-3.6-5.33s0,0,0,0c-.48-.33-8.05-5.73-10.37-11.76,0,0,7.46,9.12,8.51,8.1a41.76,41.76,0,0,1-2.72-8.32s-1.78-.5-4-7.65c.19.29,3.37,5.12,3.49,4.77h0a41.84,41.84,0,0,1-.41-6.92A25.6,25.6,0,0,1,489.9,352s.77,2.6,1.81,3.51c0-.19.06-.39.09-.59a42.52,42.52,0,0,1,2.51-9.11h0c-.06-.32-.57-5.07,6.86-19.15-.33.88-3.91,10.2-2.82,11.49a42.23,42.23,0,0,1,30.84-18.54S532.93,315.42,553.82,319.08Z" transform="translate(-75.6 -136.7)"/><path class="cls-7" d="M565.66,342.64s.49-7.73-11.25-12.66c0,0,3.47-2.31,8.08,3.26,0,0,1.92-5.56-13.85-7.06,0,0,5.27-5.88,11.67.42,0,0-.13-3.51-5.17-4.94C555.14,321.66,565.78,319.74,565.66,342.64Z" transform="translate(-75.6 -136.7)"/><path class="cls-7" d="M514.93,389.82s2.28,7.41,15,7.87c0,0-2.43,3.39-8.71-.2,0,0,.18,5.89,15.45,1.72,0,0-2.85,7.36-11.06,3.73,0,0,1.36,3.24,6.58,2.8C532.18,405.74,522.9,411.29,514.93,389.82Z" transform="translate(-75.6 -136.7)"/><path class="cls-7" d="M499.17,359.74s-.82,5.55,7.35,9.82c0,0-2.65,1.46-5.64-2.85,0,0-1.72,3.9,9.57,5.94,0,0-4.16,3.93-8.39-1,0,0-.13,2.55,3.42,3.88C505.48,375.52,497.69,376.26,499.17,359.74Z" transform="translate(-75.6 -136.7)"/><path class="cls-7" d="M523.35,331.17s-5.29-3.18-13.08,3.32c0,0-.36-3.31,5.27-4.52,0,0-3.23-3.4-10.07,7.2,0,0-2.23-5.88,4.57-8.09,0,0-2.53-1.2-5.39,1.84C504.65,330.92,507.2,322.69,523.35,331.17Z" transform="translate(-75.6 -136.7)"/><path class="cls-7" d="M560.07,386.23s3.08-1.33,2.69-6.82c0,0,1.57.89.32,3.76,0,0,2.52-.35,0-6.73,0,0,3.3.89,2.12,4.59,0,0,1.33-.74.89-3C566.11,378.07,568.93,381.8,560.07,386.23Z" transform="translate(-75.6 -136.7)"/></g><g id="_18" data-name="18"><path class="cls-5" d="M669.62,426.2s10.12-3.07,13.72-7.92A56.83,56.83,0,0,1,620.07,387a71.37,71.37,0,0,1-17.84-24.08s9.91,10.18,13.56,11.19a56.53,56.53,0,0,1,4.28-35.56h0c0-.29-.51-5.94,3.35-28.06,0,0-1.32,14.43-.59,18.08,0,0,5.14-9.75,3.64-18.89l1.5,9.14s2.77-14.94,5.78-17.6c0,0-1,8.34-3,17.63,0,0,9.91-12.49,23.88-19-.44.37-7.51,6.47-8.9,8.88l25.62-7.76s-5.13,1.64-7.37,5.47a56.61,56.61,0,0,1,8.7-.48s20.9-2.54,38.25,4.9c-.67-.18-4.69-1-13.15,1.58a56.51,56.51,0,0,1,7.35,4.6h0c.77.15,13.05,2.66,19.2,8.81,0,0-14.17-7.15-14.9-5.31a56.8,56.8,0,0,1,7.9,8.75s2.46-.36,9.12,7.22c-.39-.24-7-4.46-6.91-4h0a56.36,56.36,0,0,1,4.29,8.28,34.65,34.65,0,0,1,6.42,9.87s-2.37-2.78-4.15-3.34c.08.26.14.52.21.78a56.84,56.84,0,0,1,1.89,12.59v0c.25.37,3.48,5.93,2,27.34-.07-1.28-.77-14.71-2.82-15.7a56.88,56.88,0,0,1-27.82,39.72S697.35,419.28,669.62,426.2Z" transform="translate(-75.6 -136.7)"/><path class="cls-24" d="M717.1,368s-1.06-7.77-4.2-11a42.18,42.18,0,0,1-30.34,42.72A53,53,0,0,1,662.83,410s8.62-6.08,9.78-8.64a41.9,41.9,0,0,1-25.56-7.28h0c-.21,0-4.41-.33-20.17-5.73,0,0,10.42,2.65,13.18,2.54,0,0-6.54-4.9-13.42-4.87l6.88,0s-10.63-3.78-12.23-6.3c0,0,6,1.7,12.58,4.23,0,0-8-8.72-11.14-19.71.22.36,3.86,6.25,5.47,7.55l-2.7-19.68s.6,3.95,3.15,6a42.72,42.72,0,0,1,.66-6.43s.58-15.62,8.06-27.46c-.21.47-1.26,3.32-.37,9.82a40.61,40.61,0,0,1,4.22-4.86h0c.2-.55,3.46-9.25,8.69-13,0,0-6.9,9.55-5.63,10.3a42.31,42.31,0,0,1,7.33-4.77s0-1.85,6.36-5.85c-.22.27-4.08,4.58-3.71,4.61h0a41.48,41.48,0,0,1,6.57-2.18,25.57,25.57,0,0,1,8-3.55s-2.32,1.41-2.94,2.65l.6-.07a41.89,41.89,0,0,1,9.44.09h0c.3-.13,4.75-1.85,20.27,1.71-.94-.1-10.87-1.15-11.83.23a42.24,42.24,0,0,1,25.86,25S715.27,346.86,717.1,368Z" transform="translate(-75.6 -136.7)"/><path class="cls-7" d="M697.38,385.49s7.6-1.52,9.34-14.13c0,0,3.13,2.76-1.07,8.65,0,0,5.87.42,3.26-15.2,0,0,7,3.58,2.6,11.38,0,0,3.36-1,3.44-6.26C715,369.93,719.54,379.72,697.38,385.49Z" transform="translate(-75.6 -136.7)"/><path class="cls-7" d="M638.74,348.61s-6.58,4.11-3.75,16.52c0,0-3.9-1.48-2-8.47,0,0-5.64,1.68,2.31,15.37,0,0-7.84-.86-6.44-9.73,0,0-2.79,2.15-1,7.08C627.8,369.38,620,361.84,638.74,348.61Z" transform="translate(-75.6 -136.7)"/><path class="cls-7" d="M663.75,325.64s-5.58.64-7.6,9.63c0,0-2.09-2.18,1.3-6.18,0,0-4.21-.66-3.28,10.78,0,0-4.86-3-1.18-8.37,0,0-2.49.53-2.87,4.31C650.12,335.81,647.4,328.46,663.75,325.64Z" transform="translate(-75.6 -136.7)"/><path class="cls-7" d="M697.58,341.66s1.71-5.94-6.57-11.79c0,0,3.1-1.2,5.72,3.93,0,0,2.45-4-9.56-7.88,0,0,5.11-3.67,9,2.33,0,0,.5-2.75-3.17-4.73C693,323.52,701.62,323.86,697.58,341.66Z" transform="translate(-75.6 -136.7)"/><path class="cls-7" d="M653.83,391.31s2.07,2.63,7.28.84c0,0-.46,1.75-3.55,1.28,0,0,1,2.35,6.5-1.71,0,0,0,3.41-3.88,3.22,0,0,1.05,1.1,3.09.11C663.27,395.05,660.39,398.73,653.83,391.31Z" transform="translate(-75.6 -136.7)"/></g><g id="_19" data-name="19"><path class="cls-5" d="M330.87,375.05S341,372,344.59,367.13a56.85,56.85,0,0,1-63.28-31.32,71.42,71.42,0,0,1-17.83-24.08s9.91,10.18,13.56,11.19a56.53,56.53,0,0,1,4.28-35.56h0c0-.29-.51-5.94,3.35-28.06,0,0-1.32,14.43-.59,18.08,0,0,5.14-9.75,3.63-18.89l1.51,9.14S292,252.68,295,250c0,0-1,8.34-3,17.63,0,0,9.91-12.49,23.87-19-.43.37-7.5,6.47-8.89,8.88l25.62-7.76s-5.13,1.64-7.37,5.47a56.61,56.61,0,0,1,8.7-.48s20.9-2.54,38.25,4.9c-.67-.18-4.69-1-13.15,1.58a56.51,56.51,0,0,1,7.35,4.6h0c.77.15,13.05,2.66,19.2,8.81,0,0-14.17-7.15-14.9-5.31a56.8,56.8,0,0,1,7.9,8.75s2.46-.36,9.12,7.22c-.39-.24-6.95-4.46-6.91-4h0a56.36,56.36,0,0,1,4.29,8.28,34.65,34.65,0,0,1,6.42,9.87s-2.37-2.78-4.15-3.34l.21.78a56.84,56.84,0,0,1,1.89,12.59v0c.25.37,3.48,5.93,2,27.34-.07-1.28-.77-14.71-2.82-15.7a56.88,56.88,0,0,1-27.82,39.72S358.6,368.13,330.87,375.05Z" transform="translate(-75.6 -136.7)"/><path class="cls-25" d="M378.35,316.83s-1.06-7.77-4.2-11a42.18,42.18,0,0,1-30.34,42.72,53,53,0,0,1-19.73,10.26s8.62-6.08,9.78-8.64a41.9,41.9,0,0,1-25.56-7.28h0c-.21,0-4.41-.33-20.17-5.73,0,0,10.42,2.65,13.18,2.54,0,0-6.54-4.9-13.42-4.87l6.88,0s-10.63-3.78-12.23-6.3c0,0,6,1.7,12.58,4.23,0,0-8-8.72-11.14-19.71.22.36,3.86,6.25,5.47,7.55l-2.7-19.68s.6,3.95,3.15,6a41.46,41.46,0,0,1,.66-6.43s.58-15.62,8.06-27.46c-.21.47-1.27,3.32-.37,9.82a41.41,41.41,0,0,1,4.22-4.86h0c.19-.55,3.46-9.25,8.69-13,0,0-6.9,9.55-5.63,10.3a42.31,42.31,0,0,1,7.33-4.77s0-1.85,6.36-5.85c-.22.27-4.08,4.58-3.71,4.61h0a41.48,41.48,0,0,1,6.57-2.18,25.61,25.61,0,0,1,8-3.55s-2.31,1.41-2.93,2.65l.6-.07a41.89,41.89,0,0,1,9.44.09h0c.3-.13,4.75-1.85,20.27,1.71-.94-.1-10.87-1.15-11.83.23a42.24,42.24,0,0,1,25.86,25S376.52,295.71,378.35,316.83Z" transform="translate(-75.6 -136.7)"/><path class="cls-7" d="M358.63,334.34s7.6-1.52,9.34-14.13c0,0,3.13,2.76-1.07,8.65,0,0,5.87.42,3.26-15.2,0,0,7,3.58,2.6,11.38,0,0,3.36-1,3.44-6.26C376.2,318.78,380.79,328.57,358.63,334.34Z" transform="translate(-75.6 -136.7)"/><path class="cls-7" d="M300,297.46s-6.58,4.11-3.75,16.52c0,0-3.9-1.48-2.05-8.47,0,0-5.64,1.68,2.31,15.37,0,0-7.84-.86-6.44-9.73,0,0-2.79,2.15-1,7.08C289.05,318.23,281.29,310.69,300,297.46Z" transform="translate(-75.6 -136.7)"/><path class="cls-7" d="M325,274.49s-5.58.64-7.6,9.63c0,0-2.09-2.18,1.3-6.17,0,0-4.21-.67-3.28,10.77,0,0-4.86-3-1.18-8.37,0,0-2.49.53-2.87,4.31C311.37,284.66,308.65,277.31,325,274.49Z" transform="translate(-75.6 -136.7)"/><path class="cls-7" d="M358.83,290.51s1.71-5.94-6.57-11.79c0,0,3.1-1.2,5.72,3.93,0,0,2.45-4-9.56-7.88,0,0,5.11-3.67,9,2.33,0,0,.5-2.75-3.17-4.73C354.26,272.37,362.86,272.71,358.83,290.51Z" transform="translate(-75.6 -136.7)"/><path class="cls-7" d="M315.08,340.16s2.07,2.63,7.28.84c0,0-.46,1.75-3.55,1.28,0,0,1,2.35,6.5-1.71,0,0,0,3.41-3.88,3.22,0,0,1.05,1.1,3.09.11C324.52,343.9,321.64,347.58,315.08,340.16Z" transform="translate(-75.6 -136.7)"/></g><g id="_20" data-name="20"><path class="cls-5" d="M630.21,250.92s-10.05-3.26-15.78-1.34a56.83,56.83,0,0,1,34,61.86,71.54,71.54,0,0,1,.88,30s-2.32-14-4.74-16.94a56.55,56.55,0,0,1-23.84,26.74h0c-.14.25-3,5.16-18.78,21.11,0,0,9.32-11.08,10.82-14.5,0,0-9.79,5.06-13.78,13.42l4-8.36S592.19,373.56,588.19,374c0,0,5.58-6.28,12.51-12.78,0,0-15.27,4.59-30.45,2,.57-.06,9.85-1,12.37-2.21l-25.45-8.27s5.14,1.59,9.17-.28a55.56,55.56,0,0,1-7.41-4.57S540.32,338,530.34,322c.44.52,3.29,3.48,11.69,6.21a56,56,0,0,1-3.41-8,0,0,0,0,1,0,0c-.54-.55-9.19-9.63-10.72-18.19,0,0,7.54,14,9.19,12.87a56.34,56.34,0,0,1-1.48-11.69s-2.22-1.12-3.36-11.15c.18.43,3.15,7.64,3.41,7.21h0a56.24,56.24,0,0,1,1.22-9.25,34.35,34.35,0,0,1,.37-11.77s.35,3.64,1.5,5.12c.08-.26.17-.51.26-.77a56.6,56.6,0,0,1,5.65-11.4v0c0-.45.54-6.86,14-23.6-.67,1.09-7.77,12.51-6.66,14.49a56.9,56.9,0,0,1,45.53-16.68S603.5,240.76,630.21,250.92Z" transform="translate(-75.6 -136.7)"/><path class="cls-26" d="M558,271.56s-3.57,7-2.83,11.41a42.18,42.18,0,0,1,49.31-17.72,53,53,0,0,1,22.06,2.85s-10.55.06-13,1.5a42,42,0,0,1,16.82,20.59h0c.17.14,3.44,2.79,13.28,16.23,0,0-7-8.13-9.36-9.62,0,0,2.57,7.77,8.23,11.67l-5.66-3.9s6.56,9.17,6.43,12.15c0,0-3.95-4.82-7.9-10.66,0,0,1.58,11.73-2.13,22.55,0-.43.41-7.35-.17-9.33l-9,17.69s1.76-3.58.86-6.75a42.24,42.24,0,0,1-4.21,4.9s-9.4,12.48-22.31,17.93c.44-.27,2.94-2,5.92-7.85a41.59,41.59,0,0,1-6.24,1.57h0c-.47.33-8.13,5.61-14.59,5.73,0,0,11.12-3.89,10.51-5.23a42,42,0,0,1-8.74-.28s-1.08,1.5-8.56,1.16c.33-.08,6-1.42,5.68-1.65h0a41,41,0,0,1-6.64-2,25.17,25.17,0,0,1-8.58-1.65s2.71.17,3.93-.49l-.53-.29a41.74,41.74,0,0,1-7.7-5.47h0c-.32-.06-5-1.19-15.66-13,.72.61,8.26,7.15,9.84,6.57a42.23,42.23,0,0,1-6.91-35.32S547.41,290,558,271.56Z" transform="translate(-75.6 -136.7)"/><path class="cls-7" d="M584.16,268.46s-7.1-3.09-15.73,6.26c0,0-1-4.05,5.82-6.48,0,0-4.58-3.7-11.36,10.6,0,0-3.73-6.95,4.37-10.82,0,0-3.35-1.08-6.41,3.17C560.85,271.19,562.68,260.54,584.16,268.46Z" transform="translate(-75.6 -136.7)"/><path class="cls-7" d="M611.22,332.24s7.73.39,12.51-11.41c0,0,2.35,3.44-3.16,8.12,0,0,5.59,1.84,6.89-13.94,0,0,5.94,5.19-.27,11.67,0,0,3.51-.17,4.87-5.23C632.06,321.45,634.11,332.07,611.22,332.24Z" transform="translate(-75.6 -136.7)"/><path class="cls-7" d="M577.56,336.8s4.94,2.66,11.74-3.56c0,0,.47,3-4.6,4.32,0,0,3.08,2.95,8.85-7,0,0,2.27,5.24-3.81,7.54,0,0,2.35,1,4.81-1.9C594.55,336.24,592.59,343.82,577.56,336.8Z" transform="translate(-75.6 -136.7)"/><path class="cls-7" d="M559,304.32s-4.79,3.89-1.34,13.43c0,0-3.23-.79-2.45-6.5,0,0-4.3,1.89,3.34,11.93,0,0-6.29.09-6.06-7.06,0,0-2,2-.1,5.69C552.34,321.81,545.47,316.62,559,304.32Z" transform="translate(-75.6 -136.7)"/><path class="cls-7" d="M623.23,288.58s-.19-3.35-5.49-4.85c0,0,1.37-1.17,3.64,1,0,0,.53-2.49-6.32-2.31,0,0,2-2.8,5-.43,0,0-.24-1.5-2.48-1.85C617.62,280.12,622.09,278.74,623.23,288.58Z" transform="translate(-75.6 -136.7)"/></g></g><g id="_20-25" data-name="20-25"><g id="_21" data-name="21"><path class="cls-5" d="M254.14,321.38s-.36-10.56-4.12-15.29a56.84,56.84,0,0,1-46.55,53.08,71.5,71.5,0,0,1-27.86,11s12.39-7,14.3-10.23a56.54,56.54,0,0,1-33.26-13.29h0c-.28-.05-5.87-1-26.25-10.46,0,0,13.6,5,17.32,5.23,0,0-8.1-7.48-17.32-8.38l9.22.9s-13.72-6.52-15.52-10.12c0,0,7.81,3.1,16.28,7.4,0,0-9.52-12.79-12.22-28,.25.52,4.32,8.92,6.29,10.88l-.9-26.75s.26,5.38,3.39,8.53a55.86,55.86,0,0,1,1.77-8.53s2.93-20.85,14.58-35.7c-.34.6-2.15,4.28-1.85,13.11a56.29,56.29,0,0,1,6.33-5.92h0c.34-.7,5.92-11.92,13.45-16.28,0,0-10.56,11.85-9,13a56.71,56.71,0,0,1,10.49-5.38s.29-2.47,9.33-7c-.34.32-6.1,5.57-5.61,5.66h0a56.18,56.18,0,0,1,9.11-2,34.2,34.2,0,0,1,11.19-3.66s-3.3,1.57-4.3,3.15h.81a56.64,56.64,0,0,1,12.65,1.42h0c.42-.14,6.63-1.83,26.94,5.08-1.25-.26-14.41-3-15.89-1.32a56.9,56.9,0,0,1,31.21,37.11S254.59,292.81,254.14,321.38Z" transform="translate(-75.6 -136.7)"/><path class="cls-27" d="M210.11,260.51s-7.78-1-11.68,1.24a42.19,42.19,0,0,1,33.47,40.31,53.15,53.15,0,0,1,4.84,21.71s-3.66-9.89-5.83-11.68a42,42,0,0,1-13.63,22.83h0c-.07.2-1.44,4.18-10.73,18,0,0,5.25-9.39,5.86-12.09,0,0-6.43,5.07-8.17,11.72l1.74-6.65s-6.38,9.29-9.23,10.19c0,0,3.19-5.36,7.33-11.07,0,0-10.49,5.49-21.92,5.69.41-.12,7-2.12,8.71-3.34l-19.71-2.46s4,.44,6.64-1.49a41.3,41.3,0,0,1-6-2.29s-14.94-4.58-24.47-14.85c.4.32,2.89,2.07,9.4,2.88a40.15,40.15,0,0,1-3.6-5.33h0c-.47-.33-8.05-5.73-10.36-11.75,0,0,7.45,9.12,8.5,8.09a42.32,42.32,0,0,1-2.72-8.31s-1.77-.51-4-7.66c.2.29,3.37,5.13,3.49,4.78h0a42.83,42.83,0,0,1-.41-6.91,25.52,25.52,0,0,1-1.37-8.63s.76,2.6,1.81,3.52c0-.2.05-.4.08-.6a42,42,0,0,1,2.52-9.1v0c-.05-.32-.57-5.07,6.87-19.15-.34.89-3.91,10.21-2.82,11.49a42.23,42.23,0,0,1,30.84-18.54S189.23,256.85,210.11,260.51Z" transform="translate(-75.6 -136.7)"/><path class="cls-7" d="M222,284.08s.49-7.74-11.24-12.66c0,0,3.47-2.32,8.07,3.26,0,0,1.92-5.57-13.84-7.07,0,0,5.27-5.88,11.66.42,0,0-.12-3.51-5.16-4.93C211.44,263.1,222.08,261.18,222,284.08Z" transform="translate(-75.6 -136.7)"/><path class="cls-7" d="M171.22,331.26s2.28,7.4,15,7.87c0,0-2.43,3.39-8.71-.2,0,0,.17,5.88,15.45,1.72,0,0-2.85,7.36-11.06,3.72,0,0,1.36,3.25,6.57,2.8C188.47,347.17,179.19,352.72,171.22,331.26Z" transform="translate(-75.6 -136.7)"/><path class="cls-7" d="M155.46,301.17s-.82,5.55,7.35,9.82c0,0-2.64,1.46-5.63-2.84,0,0-1.72,3.9,9.57,5.94,0,0-4.16,3.92-8.4-1,0,0-.12,2.54,3.43,3.88C161.78,317,154,317.69,155.46,301.17Z" transform="translate(-75.6 -136.7)"/><path class="cls-7" d="M179.65,272.6s-5.3-3.18-13.08,3.32c0,0-.36-3.3,5.27-4.52,0,0-3.24-3.4-10.07,7.21,0,0-2.23-5.88,4.57-8.1,0,0-2.54-1.2-5.39,1.84C161,272.35,163.49,264.12,179.65,272.6Z" transform="translate(-75.6 -136.7)"/><path class="cls-7" d="M216.36,327.66s3.08-1.32,2.69-6.82c0,0,1.57.89.32,3.76,0,0,2.52-.35,0-6.72,0,0,3.3.88,2.12,4.58,0,0,1.33-.74.9-3C222.41,319.5,225.23,323.23,216.36,327.66Z" transform="translate(-75.6 -136.7)"/></g><g id="_22" data-name="22"><path class="cls-5" d="M441.38,247.64S433,254,431.26,259.83a56.84,56.84,0,0,1,70.21,7.4,71.48,71.48,0,0,1,25.09,16.39s-12.83-6.11-16.6-5.78a56.51,56.51,0,0,1,8.33,34.83h0c.12.26,2.53,5.4,6.59,27.48,0,0-3.77-14-5.72-17.17,0,0-1.43,10.93,3.15,19l-4.58-8.06s2.59,15,.68,18.52c0,0-2-8.17-3.34-17.57,0,0-5,15.16-15.79,26.11.28-.5,4.79-8.67,5.26-11.41l-21.33,16.17s4.24-3.32,5-7.69a56.12,56.12,0,0,1-8,3.47s-18.72,9.64-37.57,8.69c.68-.07,4.73-.72,11.77-6A57.26,57.26,0,0,1,446,362.4a0,0,0,0,1,0,0c-.77.12-13.15,2-21.05-1.6,0,0,15.77,1.79,15.81-.19a56.46,56.46,0,0,1-10.44-5.46s-2.19,1.19-11.07-3.61c.46.1,8.07,1.77,7.86,1.32h0a55.82,55.82,0,0,1-6.89-6.28,34.16,34.16,0,0,1-9.45-7s3.19,1.79,5.05,1.7l-.47-.66a56.47,56.47,0,0,1-6.14-11.15v0c-.36-.26-5.32-4.36-11.39-24.93.51,1.17,5.83,13.52,8.09,13.74a56.91,56.91,0,0,1,12.3-46.9S417.78,263.76,441.38,247.64Z" transform="translate(-75.6 -136.7)"/><path class="cls-28" d="M417.06,318.72s3.7,6.91,7.75,8.83A42.19,42.19,0,0,1,438.43,277a53.11,53.11,0,0,1,14.94-16.48s-6,8.7-6.17,11.5a41.91,41.91,0,0,1,26.5-2h0c.2-.05,4.25-1.23,20.9-1.63,0,0-10.69,1.13-13.24,2.19,0,0,7.84,2.33,14.28-.09l-6.44,2.42s11.27-.15,13.65,1.66c0,0-6.22.49-13.26.4,0,0,10.52,5.4,17.29,14.62-.34-.26-5.8-4.52-7.75-5.18l9.36,17.52s-1.94-3.5-5.05-4.57a41.11,41.11,0,0,1,1.61,6.26s4.88,14.84,2,28.55c0-.51,0-3.56-3.06-9.34a40.9,40.9,0,0,1-2.28,6s0,0,0,0c0,.57,0,9.87-3.63,15.24,0,0,3.16-11.35,1.71-11.61a42.12,42.12,0,0,1-5.22,7s.61,1.74-3.94,7.7c.12-.33,2.24-5.71,1.88-5.61h0a41.49,41.49,0,0,1-5.41,4.32,25.57,25.57,0,0,1-6.25,6.11s1.68-2.13,1.83-3.51l-.54.27a41.76,41.76,0,0,1-8.89,3.2h0c-.24.23-3.82,3.39-19.61,5.43.92-.23,10.6-2.69,11-4.32a42.24,42.24,0,0,1-32.94-14.49S426.12,337.89,417.06,318.72Z" transform="translate(-75.6 -136.7)"/><path class="cls-7" d="M429.48,295.45s-6.6,4.07-3.86,16.5c0,0-3.89-1.51-2-8.48,0,0-5.65,1.64,2.21,15.38,0,0-7.84-.91-6.38-9.77,0,0-2.8,2.13-1.06,7.07C418.4,316.15,410.7,308.56,429.48,295.45Z" transform="translate(-75.6 -136.7)"/><path class="cls-7" d="M497.28,309.68s4.74-6.14-2.22-16.8c0,0,4.17,0,4.86,7.23,0,0,4.71-3.53-7.51-13.61,0,0,7.66-1.91,9.43,6.89,0,0,1.86-3-1.51-7C500.33,286.41,510.21,290.78,497.28,309.68Z" transform="translate(-75.6 -136.7)"/><path class="cls-7" d="M481.8,339.91s5-2.54,3.78-11.68c0,0,2.72,1.33.93,6.25,0,0,4.18-.85-.67-11.24,0,0,5.6,1.13,4,7.44,0,0,2.14-1.37,1.19-5C491.05,325.64,496.15,331.58,481.8,339.91Z" transform="translate(-75.6 -136.7)"/><path class="cls-7" d="M444.51,336.63s.46,6.16,10.26,8.77c0,0-2.49,2.2-6.74-1.7,0,0-.9,4.61,11.7,4.07,0,0-3.52,5.22-9.25.94,0,0,.48,2.76,4.61,3.34C455.09,352.05,446.9,354.72,444.51,336.63Z" transform="translate(-75.6 -136.7)"/><path class="cls-7" d="M468.3,274.88s-2.85-1.76-7.12,1.73c0,0-.18-1.79,2.89-2.42,0,0-1.74-1.87-5.51,3.86,0,0-1.18-3.21,2.53-4.38,0,0-1.37-.66-2.94,1C458.15,274.65,459.57,270.19,468.3,274.88Z" transform="translate(-75.6 -136.7)"/></g><g id="_23" data-name="23"><path class="cls-5" d="M754.25,298.43S749.4,289,744,286.38a56.82,56.82,0,0,1-19.32,67.9,71.54,71.54,0,0,1-20.45,21.91s8.22-11.59,8.54-15.37A56.46,56.46,0,0,1,677,363.06h0c-.28.07-5.75,1.57-28.2,1.79,0,0,14.42-1.32,17.89-2.69,0,0-10.53-3.29-19.24-.16l8.71-3.13s-15.19,0-18.35-2.5c0,0,8.38-.54,17.88-.29,0,0-14.08-7.47-23-20,.45.36,7.72,6.2,10.34,7.13l-12.27-23.78s2.54,4.75,6.72,6.25a55.74,55.74,0,0,1-2.06-8.46s-6.28-20.1-2.12-38.51c0,.69-.11,4.79,4,12.64a55.77,55.77,0,0,1,3.18-8.06h0c0-.78.24-13.31,5.17-20.48,0,0-4.46,15.23-2.52,15.62a56.09,56.09,0,0,1,7.18-9.36s-.8-2.35,5.44-10.28c-.17.43-3.12,7.64-2.64,7.52h0a56.84,56.84,0,0,1,7.37-5.72,34.28,34.28,0,0,1,8.54-8.1s-2.31,2.83-2.53,4.69l.72-.36a57,57,0,0,1,12-4.13h0c.32-.31,5.21-4.49,26.52-7-1.24.3-14.32,3.43-14.92,5.61a56.93,56.93,0,0,1,44.1,20.17S742.41,272.42,754.25,298.43Z" transform="translate(-75.6 -136.7)"/><path class="cls-29" d="M688.39,262.3s-7.45,2.45-10,6.12a42.17,42.17,0,0,1,47.51,22.09,53.14,53.14,0,0,1,13.67,17.54S732,300.67,729.27,300a41.92,41.92,0,0,1-2.53,26.46h0c0,.21.49,4.4-2,20.88,0,0,.72-10.73.11-13.43,0,0-3.64,7.33-2.36,14.09l-1.28-6.76s-1.78,11.13-4,13.17c0,0,.58-6.21,1.88-13.14,0,0-7.13,9.45-17.37,14.53.32-.28,5.45-4.93,6.44-6.75l-18.87,6.22s3.78-1.3,5.37-4.19a41.41,41.41,0,0,1-6.44.52s-15.47,2.26-28.47-2.94c.5.11,3.5.64,9.72-1.42A41.62,41.62,0,0,1,664,344a0,0,0,0,1,0,0c-.57-.09-9.73-1.73-14.4-6.18,0,0,10.64,5.05,11.15,3.67a42.15,42.15,0,0,1-6-6.35s-1.82.31-6.9-5.2c.29.18,5.23,3.19,5.2,2.82h0a41.33,41.33,0,0,1-3.33-6.07,25.54,25.54,0,0,1-4.94-7.2s1.81,2,3.14,2.4c-.06-.19-.12-.38-.17-.57a42.22,42.22,0,0,1-1.63-9.31h0c-.19-.27-2.69-4.34-2-20.25.07.94.84,10.9,2.37,11.59a42.23,42.23,0,0,1,19.92-30S667.94,267.93,688.39,262.3Z" transform="translate(-75.6 -136.7)"/><path class="cls-7" d="M709.18,278.51s-2.87-7.19-15.59-6.62c0,0,2.15-3.57,8.7-.51,0,0-.65-5.85-15.54-.45,0,0,2.24-7.57,10.72-4.62,0,0-1.62-3.12-6.78-2.25C690.69,264.06,699.48,257.77,709.18,278.51Z" transform="translate(-75.6 -136.7)"/><path class="cls-7" d="M683.55,342.88s5.23,5.71,16.92.69c0,0-.74,4.1-8,3.55,0,0,2.67,5.24,14.69-5.07,0,0,.58,7.88-8.39,8.11,0,0,2.61,2.35,7.14-.29C706,349.87,700,358.86,683.55,342.88Z" transform="translate(-75.6 -136.7)"/><path class="cls-7" d="M656.42,322.45s1.64,5.36,10.85,5.72c0,0-1.77,2.45-6.31-.16,0,0,.12,4.27,11.19,1.27,0,0-2.08,5.33-8,2.69,0,0,1,2.35,4.76,2C668.89,334,662.16,338,656.42,322.45Z" transform="translate(-75.6 -136.7)"/><path class="cls-7" d="M666,286.27s-6.15-.61-10.4,8.6c0,0-1.74-2.83,2.82-6.34,0,0-4.37-1.68-6,10.83,0,0-4.53-4.36.66-9.28,0,0-2.8,0-4.08,4C649,294.06,647.81,285.53,666,286.27Z" transform="translate(-75.6 -136.7)"/><path class="cls-7" d="M722.8,320.29s2.22-2.51-.49-7.31c0,0,1.8.13,1.9,3.26,0,0,2.13-1.4-2.87-6.09,0,0,3.36-.61,3.88,3.24,0,0,.89-1.24-.45-3.06C724.77,310.33,728.91,312.49,722.8,320.29Z" transform="translate(-75.6 -136.7)"/></g><g id="_24" data-name="24"><path class="cls-5" d="M762.88,353.71s10.11-3.07,13.72-7.92a56.85,56.85,0,0,1-63.28-31.32,71.52,71.52,0,0,1-17.84-24.08s9.92,10.18,13.57,11.19A56.53,56.53,0,0,1,713.33,266h0c0-.29-.51-5.94,3.35-28.06,0,0-1.32,14.42-.6,18.08,0,0,5.15-9.75,3.64-18.89l1.51,9.14s2.76-14.94,5.78-17.6c0,0-1,8.34-3,17.63,0,0,9.91-12.49,23.87-19-.44.37-7.51,6.47-8.89,8.88l25.61-7.76s-5.13,1.64-7.37,5.47a55.51,55.51,0,0,1,8.7-.48s20.9-2.54,38.25,4.9c-.66-.18-4.69-1-13.14,1.58a56.51,56.51,0,0,1,7.35,4.6h0c.76.15,13,2.66,19.19,8.81,0,0-14.17-7.15-14.9-5.31a56.29,56.29,0,0,1,7.9,8.75s2.46-.36,9.13,7.22c-.4-.24-7-4.46-6.91-4h0a55.86,55.86,0,0,1,4.29,8.28,34.31,34.31,0,0,1,6.41,9.87s-2.36-2.78-4.15-3.34c.08.26.15.52.22.78a56.24,56.24,0,0,1,1.88,12.59v0c.24.37,3.47,5.93,2,27.34-.08-1.28-.78-14.71-2.82-15.7a56.88,56.88,0,0,1-27.83,39.71S790.6,346.79,762.88,353.71Z" transform="translate(-75.6 -136.7)"/><path class="cls-30" d="M810.36,295.49s-1.07-7.77-4.2-11a42.2,42.2,0,0,1-30.34,42.72,53,53,0,0,1-19.73,10.26s8.62-6.08,9.78-8.64a42,42,0,0,1-25.56-7.29h0c-.21,0-4.41-.32-20.17-5.73,0,0,10.42,2.66,13.18,2.55,0,0-6.55-4.91-13.42-4.87l6.87,0s-10.62-3.77-12.22-6.29c0,0,6,1.7,12.58,4.23,0,0-8-8.72-11.15-19.72.23.37,3.87,6.26,5.47,7.56l-2.69-19.68s.6,3.95,3.15,6a41.33,41.33,0,0,1,.66-6.43s.58-15.62,8.05-27.46c-.2.46-1.26,3.32-.37,9.81a42.35,42.35,0,0,1,4.23-4.85h0c.2-.55,3.47-9.25,8.7-13,0,0-6.9,9.55-5.64,10.3a42.19,42.19,0,0,1,7.34-4.77s0-1.85,6.36-5.85c-.23.26-4.08,4.58-3.71,4.61h0a41.48,41.48,0,0,1,6.57-2.18,25.38,25.38,0,0,1,8-3.55s-2.31,1.41-2.93,2.65l.59-.07a42,42,0,0,1,9.45.09h0c.29-.14,4.75-1.86,20.27,1.71-.94-.1-10.87-1.16-11.83.23a42.23,42.23,0,0,1,25.86,25S808.52,274.37,810.36,295.49Z" transform="translate(-75.6 -136.7)"/><path class="cls-7" d="M790.64,313s7.6-1.52,9.34-14.13c0,0,3.13,2.76-1.07,8.65,0,0,5.87.42,3.26-15.2,0,0,7,3.58,2.59,11.38,0,0,3.37-1,3.45-6.26C808.21,297.44,812.8,307.23,790.64,313Z" transform="translate(-75.6 -136.7)"/><path class="cls-7" d="M732,276.12s-6.57,4.11-3.74,16.52c0,0-3.91-1.48-2-8.47,0,0-5.65,1.68,2.31,15.37,0,0-7.85-.86-6.45-9.73,0,0-2.78,2.15-1,7.08C721.05,296.89,713.3,289.35,732,276.12Z" transform="translate(-75.6 -136.7)"/><path class="cls-7" d="M757,253.15s-5.58.63-7.6,9.63c0,0-2.09-2.18,1.3-6.18,0,0-4.22-.66-3.28,10.78,0,0-4.86-3-1.19-8.38,0,0-2.49.54-2.86,4.32C743.38,263.32,740.66,256,757,253.15Z" transform="translate(-75.6 -136.7)"/><path class="cls-7" d="M790.84,269.17s1.71-5.94-6.58-11.79c0,0,3.1-1.2,5.73,3.93,0,0,2.45-4-9.56-7.88,0,0,5.11-3.67,9,2.33,0,0,.51-2.75-3.17-4.73C786.26,251,794.87,251.37,790.84,269.17Z" transform="translate(-75.6 -136.7)"/><path class="cls-7" d="M747.08,318.82s2.08,2.63,7.28.84c0,0-.45,1.75-3.54,1.28,0,0,1,2.34,6.5-1.72,0,0,0,3.42-3.89,3.23,0,0,1.06,1.1,3.1.11C756.53,322.56,753.64,326.24,747.08,318.82Z" transform="translate(-75.6 -136.7)"/></g><g id="_25" data-name="25"><path class="cls-5" d="M310.64,249.42s-10.05-3.26-15.78-1.34a56.82,56.82,0,0,1,34,61.86,71.54,71.54,0,0,1,.88,30s-2.32-14-4.74-16.93a56.5,56.5,0,0,1-23.83,26.73h0c-.14.25-3,5.16-18.78,21.11,0,0,9.33-11.08,10.82-14.5,0,0-9.79,5.06-13.78,13.42l4-8.36s-10.81,10.68-14.81,11.14c0,0,5.58-6.28,12.51-12.78,0,0-15.27,4.59-30.45,2,.57-.06,9.86-1,12.37-2.21l-25.45-8.27s5.14,1.59,9.17-.28a55.56,55.56,0,0,1-7.41-4.57s-18.6-9.87-28.59-25.88c.45.52,3.29,3.48,11.69,6.21a57.15,57.15,0,0,1-3.4-8,0,0,0,0,1,0,0c-.54-.55-9.19-9.63-10.72-18.19,0,0,7.54,14,9.19,12.87A57,57,0,0,1,216,301.7s-2.22-1.12-3.36-11.15c.19.43,3.16,7.64,3.41,7.21h0a56.38,56.38,0,0,1,1.22-9.25,34.35,34.35,0,0,1,.37-11.77s.35,3.64,1.5,5.12c.08-.26.17-.51.27-.77a56.83,56.83,0,0,1,5.64-11.4v0c0-.45.54-6.86,14-23.6-.67,1.09-7.77,12.51-6.66,14.49a56.9,56.9,0,0,1,45.53-16.68S283.93,239.26,310.64,249.42Z" transform="translate(-75.6 -136.7)"/><path class="cls-31" d="M238.41,270.06s-3.57,7-2.83,11.41a42.18,42.18,0,0,1,49.31-17.72A53,53,0,0,1,307,266.6s-10.55.07-13,1.5a42,42,0,0,1,16.81,20.59h0c.16.14,3.43,2.79,13.28,16.24,0,0-7-8.14-9.37-9.63,0,0,2.57,7.77,8.23,11.67l-5.66-3.9s6.56,9.17,6.44,12.15c0,0-4-4.82-7.91-10.66,0,0,1.58,11.73-2.12,22.55,0-.43.4-7.35-.17-9.33l-9,17.69s1.77-3.58.87-6.75a42.32,42.32,0,0,1-4.22,4.9s-9.4,12.48-22.3,17.93c.43-.27,2.93-2,5.91-7.85a40.42,40.42,0,0,1-6.24,1.57h0c-.47.34-8.13,5.61-14.58,5.73,0,0,11.11-3.89,10.51-5.23a42.08,42.08,0,0,1-8.75-.28s-1.08,1.5-8.56,1.16c.34-.08,6-1.42,5.68-1.65h0a40.86,40.86,0,0,1-6.63-2,25.18,25.18,0,0,1-8.59-1.65s2.71.17,3.93-.49l-.53-.29a42.08,42.08,0,0,1-7.7-5.47h0c-.33-.06-5-1.19-15.67-13,.72.61,8.26,7.15,9.84,6.57a42.26,42.26,0,0,1-6.91-35.32S227.84,288.45,238.41,270.06Z" transform="translate(-75.6 -136.7)"/><path class="cls-7" d="M264.6,267s-7.11-3.09-15.74,6.26c0,0-1-4.05,5.82-6.48,0,0-4.58-3.7-11.36,10.6,0,0-3.73-6.95,4.37-10.82,0,0-3.35-1.08-6.4,3.17C241.29,269.69,243.11,259,264.6,267Z" transform="translate(-75.6 -136.7)"/><path class="cls-7" d="M291.65,330.74s7.74.39,12.51-11.41c0,0,2.36,3.44-3.15,8.12,0,0,5.58,1.84,6.88-13.94,0,0,5.95,5.19-.27,11.67,0,0,3.51-.17,4.87-5.23C312.49,320,314.55,330.57,291.65,330.74Z" transform="translate(-75.6 -136.7)"/><path class="cls-7" d="M258,335.3s4.94,2.66,11.74-3.56c0,0,.47,3-4.59,4.32,0,0,3.08,2.95,8.84-7,0,0,2.27,5.25-3.81,7.54,0,0,2.35,1,4.81-1.9C275,334.74,273,342.32,258,335.3Z" transform="translate(-75.6 -136.7)"/><path class="cls-7" d="M239.38,302.82s-4.79,3.89-1.34,13.43c0,0-3.23-.79-2.45-6.5,0,0-4.3,1.89,3.34,11.93,0,0-6.29.09-6.05-7.06,0,0-2,2-.11,5.69C232.77,320.31,225.9,315.12,239.38,302.82Z" transform="translate(-75.6 -136.7)"/><path class="cls-7" d="M303.66,287.08s-.19-3.35-5.49-4.85c0,0,1.37-1.17,3.64,1,0,0,.54-2.49-6.31-2.31,0,0,1.95-2.8,5-.43,0,0-.24-1.5-2.48-1.85C298.05,278.62,302.52,277.24,303.66,287.08Z" transform="translate(-75.6 -136.7)"/></g></g></svg>