<?xml version="1.0" encoding="UTF-8"?>
<!DOCTYPE svg PUBLIC "-//W3C//DTD SVG 1.1//EN" "http://www.w3.org/Graphics/SVG/1.1/DTD/svg11.dtd">
<svg xmlns="http://www.w3.org/2000/svg" xmlns:xlink="http://www.w3.org/1999/xlink" version="1.1" width="105px" height="69px" viewBox="-0.5 -0.5 105 69"><defs/><g><rect x="4" y="32.4" width="96" height="36" fill="#d9c4a0" stroke="none" pointer-events="all"/><path d="M 0 40.4 L 8 12.4 L 96 12.4 L 104 40.4 Z" fill="#3d2a26" stroke="none" pointer-events="all"/><path d="M 39.6 -22 L 63.6 12 L 39.6 46 Z" fill="#3d2a26" stroke="none" transform="rotate(-90,51.6,12)" pointer-events="all"/><ellipse cx="51.6" cy="24.4" rx="10" ry="10" fill="#ffffff" stroke="#000000" pointer-events="all"/><rect x="40.9" y="13.9" width="21.4" height="21" fill="none" stroke="none" pointer-events="all"/><path d="M 56.44 28.05 C 56.64 28.22 56.67 28.54 56.46 28.78 C 56.3 28.94 56.01 29.03 55.77 28.86 L 51.09 25.34 C 50.99 25.23 50.89 25.13 50.9 24.91 L 50.9 17.22 C 50.9 16.91 51.18 16.7 51.44 16.7 C 51.77 16.7 51.97 17 51.97 17.22 L 51.97 24.68 Z M 51.65 33.16 C 56.93 33.16 60.52 28.8 60.52 24.41 C 60.52 19.07 56.04 15.65 51.63 15.65 C 45.77 15.65 42.69 20.63 42.69 24.17 C 42.69 30.13 47.52 33.16 51.65 33.16 Z M 51.55 34.9 C 46.27 34.9 41.03 30.94 40.9 24.28 C 40.9 19.17 45.28 13.9 51.56 13.9 C 57.08 13.9 62.3 18.1 62.3 24.46 C 62.3 30.1 57.66 34.9 51.55 34.9 Z" fill="#000000" stroke="none" pointer-events="all"/><rect x="68" y="44.4" width="8" height="12" rx="1.2" ry="1.2" fill="#dae8fc" stroke="none" pointer-events="all"/><rect x="84" y="44.4" width="8" height="12" rx="1.2" ry="1.2" fill="#dae8fc" stroke="none" pointer-events="all"/><path d="M 39.6 47.2 Q 64.4 47.2 64.4 56 Q 64.4 64.8 39.6 64.8 Z" fill="#3d2a26" stroke="none" transform="rotate(-90,52,56)" pointer-events="all"/><rect x="12" y="44" width="8" height="12" rx="1.2" ry="1.2" fill="#dae8fc" stroke="none" pointer-events="all"/><rect x="28" y="44" width="8" height="12" rx="1.2" ry="1.2" fill="#dae8fc" stroke="none" pointer-events="all"/></g></svg>